<svg width="40" height="40" viewBox="0 0 40 40" fill="none" xmlns="http://www.w3.org/2000/svg">
<rect x="0.5" y="0.5" width="39" height="39" rx="5.5" fill="white"/>
<path d="M24.5 10.825C22.76 10.825 21.09 11.635 20 12.915C18.91 11.635 17.24 10.825 15.5 10.825C12.42 10.825 10 13.245 10 16.325C10 20.105 13.4 23.185 18.55 27.865L20 29.175L21.45 27.855C26.6 23.185 30 20.105 30 16.325C30 13.245 27.58 10.825 24.5 10.825ZM20.1 26.375L20 26.475L19.9 26.375C15.14 22.065 12 19.215 12 16.325C12 14.325 13.5 12.825 15.5 12.825C17.04 12.825 18.54 13.815 19.07 15.185H20.94C21.46 13.815 22.96 12.825 24.5 12.825C26.5 12.825 28 14.325 28 16.325C28 19.215 24.86 22.065 20.1 26.375Z" fill="#0D6EFD"/>
<rect x="0.5" y="0.5" width="39" height="39" rx="5.5" stroke="#DEE2E7"/>
</svg>
