<svg width="300" height="322" viewBox="0 0 300 322" fill="none" xmlns="http://www.w3.org/2000/svg">
<g filter="url(#filter0_d_204_3838)">
<path fill-rule="evenodd" clip-rule="evenodd" d="M10 12C10 8.68629 12.6863 6 16 6H284C287.314 6 290 8.68629 290 12V302C290 305.314 287.314 308 284 308H16C12.6863 308 10 305.314 10 302V12Z" fill="white"/>
<path d="M16 6.5H284C287.038 6.5 289.5 8.96243 289.5 12V302C289.5 305.038 287.038 307.5 284 307.5H16C12.9624 307.5 10.5 305.038 10.5 302V12C10.5 8.96243 12.9624 6.5 16 6.5Z" stroke="#DEE2E7"/>
</g>
<defs>
<filter id="filter0_d_204_3838" x="0" y="0" width="300" height="322" filterUnits="userSpaceOnUse" color-interpolation-filters="sRGB">
<feFlood flood-opacity="0" result="BackgroundImageFix"/>
<feColorMatrix in="SourceAlpha" type="matrix" values="0 0 0 0 0 0 0 0 0 0 0 0 0 0 0 0 0 0 127 0" result="hardAlpha"/>
<feOffset dy="4"/>
<feGaussianBlur stdDeviation="5"/>
<feColorMatrix type="matrix" values="0 0 0 0 0.220833 0 0 0 0 0.220833 0 0 0 0 0.220833 0 0 0 0.1 0"/>
<feBlend mode="normal" in2="BackgroundImageFix" result="effect1_dropShadow_204_3838"/>
<feBlend mode="normal" in="SourceGraphic" in2="effect1_dropShadow_204_3838" result="shape"/>
</filter>
</defs>
</svg>
