<svg width="888" height="626" viewBox="0 0 888 626" fill="none" xmlns="http://www.w3.org/2000/svg">
<g filter="url(#filter0_d_229_7477)">
<path fill-rule="evenodd" clip-rule="evenodd" d="M4 9.00002C4 5.68631 6.68629 3 10 3H878C881.314 3 884 5.68629 884 9V615C884 618.314 881.314 621 878 621H9.99999C6.68629 621 4 618.314 4 615V9.00002Z" fill="white"/>
<path fill-rule="evenodd" clip-rule="evenodd" d="M4 9.00002C4 5.68631 6.68629 3 10 3H878C881.314 3 884 5.68629 884 9V615C884 618.314 881.314 621 878 621H9.99999C6.68629 621 4 618.314 4 615V9.00002Z" stroke="#DEE2E7"/>
</g>
<defs>
<filter id="filter0_d_229_7477" x="0.5" y="0.5" width="887" height="625" filterUnits="userSpaceOnUse" color-interpolation-filters="sRGB">
<feFlood flood-opacity="0" result="BackgroundImageFix"/>
<feColorMatrix in="SourceAlpha" type="matrix" values="0 0 0 0 0 0 0 0 0 0 0 0 0 0 0 0 0 0 127 0" result="hardAlpha"/>
<feOffset dy="1"/>
<feGaussianBlur stdDeviation="1.5"/>
<feColorMatrix type="matrix" values="0 0 0 0 0.220833 0 0 0 0 0.220833 0 0 0 0 0.220833 0 0 0 0.1 0"/>
<feBlend mode="normal" in2="BackgroundImageFix" result="effect1_dropShadow_229_7477"/>
<feBlend mode="normal" in="SourceGraphic" in2="effect1_dropShadow_229_7477" result="shape"/>
</filter>
</defs>
</svg>
