<svg width="151" height="46" viewBox="0 0 151 46" fill="none" xmlns="http://www.w3.org/2000/svg">
<g opacity="0.8">
<path fill-rule="evenodd" clip-rule="evenodd" d="M14.4676 2.91304H37.185C40.9489 2.91304 44.0002 6.2855 44.0002 10.4456V35.5543C44.0002 39.7145 40.9489 43.087 37.185 43.087H14.4676C10.7036 43.087 7.65234 39.7145 7.65234 35.5543L7.65234 10.4456C7.65234 6.2855 10.7036 2.91304 14.4676 2.91304Z" fill="#0D6EFD" fill-opacity="0.2"/>
<path fill-rule="evenodd" clip-rule="evenodd" d="M8.13046 2.91304H32.0435C36.0055 2.91304 39.2174 6.2855 39.2174 10.4456V35.5543C39.2174 39.7145 36.0055 43.087 32.0435 43.087H8.13046C4.16841 43.087 0.956542 39.7145 0.956543 35.5543L0.956543 10.4456C0.956543 6.2855 4.16841 2.91304 8.13046 2.91304Z" fill="#0D6EFD"/>
<g opacity="0.7">
<path opacity="0.3" fill-rule="evenodd" clip-rule="evenodd" d="M15.2898 19.3563H14.3092C14.2587 19.3563 14.1837 19.4266 14.1808 19.473L13.4585 31.1477L26.9544 31.1452L26.2249 19.473C26.2221 19.4284 26.1453 19.3563 26.0965 19.3563H25.116V21.3215C25.116 21.8642 24.676 22.3041 24.1334 22.3041C23.5907 22.3041 23.1507 21.8642 23.1507 21.3215V19.3563H17.255V21.3215C17.255 21.8642 16.8151 22.3041 16.2724 22.3041C15.7297 22.3041 15.2898 21.8642 15.2898 21.3215V19.3563Z" fill="white"/>
<path fill-rule="evenodd" clip-rule="evenodd" d="M20.203 12.4783C22.9151 12.4783 25.1162 14.6796 25.1162 17.3891L26.0967 17.3914C27.1832 17.3914 28.119 18.2703 28.1865 19.3508L28.9242 31.1539C28.9918 32.2361 28.1695 33.1133 27.0862 33.1133H13.3199C12.2372 33.1133 11.4144 32.2344 11.4819 31.1539L12.2196 19.3508C12.2872 18.2686 13.221 17.3914 14.3094 17.3914H15.2899C15.2899 14.6781 17.4928 12.4783 20.203 12.4783ZM23.1509 17.3915C23.1509 15.765 21.8297 14.4436 20.203 14.4436C18.5776 14.4436 17.2552 15.7642 17.2552 17.3892L23.1509 17.3915ZM15.2899 19.3566H14.3094C14.2589 19.3566 14.1839 19.4269 14.181 19.4733L13.4587 31.148L26.9546 31.1455L26.2251 19.4733C26.2223 19.4286 26.1454 19.3566 26.0967 19.3566H25.1162V21.3218C25.1162 21.8645 24.6762 22.3044 24.1335 22.3044C23.5908 22.3044 23.1509 21.8645 23.1509 21.3218V19.3566H17.2552V21.3218C17.2552 21.8645 16.8152 22.3044 16.2726 22.3044C15.7299 22.3044 15.2899 21.8645 15.2899 21.3218V19.3566Z" fill="white"/>
</g>
</g>
</svg>
