<svg width="151" height="46" viewBox="0 0 151 46" fill="none" xmlns="http://www.w3.org/2000/svg">
<g opacity="0.8">
<path fill-rule="evenodd" clip-rule="evenodd" d="M14.4674 2.91309H37.1848C40.9488 2.91309 44 6.28555 44 10.4457V35.5544C44 39.7145 40.9488 43.087 37.1848 43.087H14.4674C10.7035 43.087 7.65222 39.7145 7.65222 35.5544L7.65222 10.4457C7.65222 6.28555 10.7035 2.91309 14.4674 2.91309Z" fill="#0D6EFD" fill-opacity="0.2"/>
<path fill-rule="evenodd" clip-rule="evenodd" d="M8.13046 2.91309H32.0435C36.0055 2.91309 39.2174 6.28555 39.2174 10.4457V35.5544C39.2174 39.7145 36.0055 43.087 32.0435 43.087H8.13046C4.16841 43.087 0.956542 39.7145 0.956543 35.5544L0.956543 10.4457C0.956543 6.28555 4.16841 2.91309 8.13046 2.91309Z" fill="#0D6EFD"/>
<g opacity="0.7">
<path opacity="0.3" fill-rule="evenodd" clip-rule="evenodd" d="M15.2901 19.3562H14.3096C14.259 19.3562 14.1841 19.4265 14.1812 19.473L13.4589 31.1476L26.9548 31.1451L26.2253 19.473C26.2225 19.4283 26.1456 19.3562 26.0969 19.3562H25.1163V21.3214C25.1163 21.8641 24.6764 22.3041 24.1337 22.3041C23.591 22.3041 23.1511 21.8641 23.1511 21.3214V19.3562H17.2554V21.3214C17.2554 21.8641 16.8154 22.3041 16.2727 22.3041C15.7301 22.3041 15.2901 21.8641 15.2901 21.3214V19.3562Z" fill="white"/>
<path fill-rule="evenodd" clip-rule="evenodd" d="M20.2033 12.4783C22.9153 12.4783 25.1164 14.6796 25.1164 17.3891L26.0969 17.3914C27.1835 17.3914 28.1192 18.2704 28.1867 19.3508L28.9244 31.1539C28.9921 32.2361 28.1698 33.1133 27.0865 33.1133H13.3201C12.2374 33.1133 11.4146 32.2344 11.4821 31.1539L12.2198 19.3508C12.2875 18.2686 13.2213 17.3914 14.3096 17.3914H15.2902C15.2902 14.6781 17.493 12.4783 20.2033 12.4783ZM23.1511 17.3915C23.1511 15.765 21.8299 14.4436 20.2033 14.4436C18.5778 14.4436 17.2554 15.7642 17.2554 17.3892L23.1511 17.3915ZM15.2902 19.3566H14.3096C14.2591 19.3566 14.1842 19.4269 14.1813 19.4733L13.4589 31.148L26.9548 31.1455L26.2253 19.4733C26.2225 19.4286 26.1457 19.3566 26.0969 19.3566H25.1164V21.3218C25.1164 21.8645 24.6765 22.3044 24.1338 22.3044C23.5911 22.3044 23.1512 21.8645 23.1512 21.3218V19.3566H17.2554V21.3218C17.2554 21.8645 16.8155 22.3044 16.2728 22.3044C15.7301 22.3044 15.2902 21.8645 15.2902 21.3218V19.3566Z" fill="white"/>
</g>
</g>
</svg>
