<svg width="60" height="30" viewBox="0 0 60 30" fill="none" xmlns="http://www.w3.org/2000/svg">
<path d="M30.5 0.5H54C57.0376 0.5 59.5 2.96243 59.5 6V24C59.5 27.0376 57.0376 29.5 54 29.5H30.5V0.5Z" fill="#EFF2F4" stroke="#DEE2E7"/>
<path d="M52.5 11.6667H37.5V8.33337H52.5V11.6667ZM52.5 13.3334H37.5V16.6667H52.5V13.3334ZM52.5 18.3334H37.5V21.6667H52.5V18.3334Z" fill="#1C1C1C"/>
<path d="M6 0.5H29.5V29.5H6C2.96243 29.5 0.5 27.0376 0.5 24V6C0.5 2.96243 2.96243 0.5 6 0.5Z" fill="white" stroke="#DEE2E7"/>
<path d="M14.1667 7.5H7.5V14.1667H14.1667V7.5Z" fill="#1C1C1C"/>
<path d="M14.1667 15.8333H7.5V22.5H14.1667V15.8333Z" fill="#1C1C1C"/>
<path d="M22.5 7.5H15.8333V14.1667H22.5V7.5Z" fill="#1C1C1C"/>
<path d="M22.5 15.8333H15.8333V22.5H22.5V15.8333Z" fill="#1C1C1C"/>
</svg>
