<svg width="44" height="40" viewBox="0 0 44 40" fill="none" xmlns="http://www.w3.org/2000/svg">
<path d="M0.5 0.5H38C41.0376 0.5 43.5 2.96243 43.5 6V34C43.5 37.0376 41.0376 39.5 38 39.5H0.5V0.5Z" fill="white" stroke="#DEE2E7"/>
<path fill-rule="evenodd" clip-rule="evenodd" d="M18.3554 13.3683C17.8815 13.8573 17.8815 14.6472 18.3554 15.1361L23.0691 20.0008L18.3554 24.8654C17.8815 25.3544 17.8815 26.1443 18.3554 26.6333C18.8292 27.1222 19.5945 27.1222 20.0683 26.6333L25.6446 20.8784C26.1185 20.3895 26.1185 19.5996 25.6446 19.1106L20.0683 13.3558C19.6067 12.8793 18.8292 12.8793 18.3554 13.3683Z" fill="#1C1C1C"/>
</svg>
