<svg width="44" height="40" viewBox="0 0 44 40" fill="none" xmlns="http://www.w3.org/2000/svg">
<path d="M6 0.5H43.5V39.5H6C2.96243 39.5 0.5 37.0376 0.5 34V6C0.5 2.96243 2.96243 0.5 6 0.5Z" fill="white" stroke="#DEE2E7"/>
<path fill-rule="evenodd" clip-rule="evenodd" d="M24.6446 13.3664C24.1708 12.8779 23.4055 12.8779 22.9317 13.3664L17.3554 19.1168C16.8815 19.6054 16.8815 20.3946 17.3554 20.8832L22.9317 26.6336C23.4055 27.1221 24.1708 27.1221 24.6446 26.6336C25.1185 26.145 25.1185 25.3557 24.6446 24.8671L19.9309 19.9937L24.6446 15.1329C25.1185 14.6443 25.1063 13.8425 24.6446 13.3664Z" fill="#8B96A5"/>
</svg>
