<svg width="44" height="44" viewBox="0 0 44 44" fill="none" xmlns="http://www.w3.org/2000/svg">
<g filter="url(#filter0_d_238_5615)">
<rect x="2" y="1" width="40" height="40" rx="6" fill="white"/>
<path d="M26.5 11.825C24.76 11.825 23.09 12.635 22 13.915C20.91 12.635 19.24 11.825 17.5 11.825C14.42 11.825 12 14.245 12 17.325C12 21.105 15.4 24.185 20.55 28.865L22 30.175L23.45 28.855C28.6 24.185 32 21.105 32 17.325C32 14.245 29.58 11.825 26.5 11.825ZM22.1 27.375L22 27.475L21.9 27.375C17.14 23.065 14 20.215 14 17.325C14 15.325 15.5 13.825 17.5 13.825C19.04 13.825 20.54 14.815 21.07 16.185H22.94C23.46 14.815 24.96 13.825 26.5 13.825C28.5 13.825 30 15.325 30 17.325C30 20.215 26.86 23.065 22.1 27.375Z" fill="#0D6EFD"/>
<rect x="2.5" y="1.5" width="39" height="39" rx="5.5" stroke="#DEE2E7"/>
</g>
<defs>
<filter id="filter0_d_238_5615" x="0" y="0" width="44" height="44" filterUnits="userSpaceOnUse" color-interpolation-filters="sRGB">
<feFlood flood-opacity="0" result="BackgroundImageFix"/>
<feColorMatrix in="SourceAlpha" type="matrix" values="0 0 0 0 0 0 0 0 0 0 0 0 0 0 0 0 0 0 127 0" result="hardAlpha"/>
<feOffset dy="1"/>
<feGaussianBlur stdDeviation="1"/>
<feColorMatrix type="matrix" values="0 0 0 0 0.220833 0 0 0 0 0.220833 0 0 0 0 0.220833 0 0 0 0.08 0"/>
<feBlend mode="normal" in2="BackgroundImageFix" result="effect1_dropShadow_238_5615"/>
<feBlend mode="normal" in="SourceGraphic" in2="effect1_dropShadow_238_5615" result="shape"/>
</filter>
</defs>
</svg>
