<svg width="34" height="24" viewBox="0 0 34 24" fill="none" xmlns="http://www.w3.org/2000/svg">
<path fill-rule="evenodd" clip-rule="evenodd" d="M6.54545 12C6.54545 15.0545 8.94545 17.4545 12 17.4545C15.0545 17.4545 17.4545 15.0545 17.4545 12C17.4545 8.94545 15.0545 6.54545 12 6.54545C8.94545 6.54545 6.54545 8.94545 6.54545 12ZM2 12C2 17.5 6.5 22 12 22C17.5 22 22 17.5 22 12C22 6.5 17.5 2 12 2C6.5 2 2 6.5 2 12ZM3.81818 12C3.81818 7.5 7.5 3.81818 12 3.81818C16.5 3.81818 20.1818 7.5 20.1818 12C20.1818 16.5 16.5 20.1818 12 20.1818C7.5 20.1818 3.81818 16.5 3.81818 12Z" fill="#0D6EFD"/>
</svg>
