<svg width="230" height="28" viewBox="0 0 230 28" fill="none" xmlns="http://www.w3.org/2000/svg">
<rect y="10" width="230" height="4" rx="2" fill="#AFD0FF"/>
<rect x="53.75" y="10" width="107.5" height="4" rx="2" fill="#0D6EFD"/>
<g filter="url(#filter0_d_238_5359)">
<path fill-rule="evenodd" clip-rule="evenodd" d="M58 22C63.5228 22 68 17.5228 68 12C68 6.47715 63.5228 2 58 2C52.4772 2 48 6.47715 48 12C48 17.5228 52.4772 22 58 22Z" fill="white"/>
<path d="M67.5 12C67.5 17.2467 63.2467 21.5 58 21.5C52.7533 21.5 48.5 17.2467 48.5 12C48.5 6.75329 52.7533 2.5 58 2.5C63.2467 2.5 67.5 6.75329 67.5 12Z" stroke="#AFD0FF"/>
</g>
<g filter="url(#filter1_d_238_5359)">
<path fill-rule="evenodd" clip-rule="evenodd" d="M156 22C161.523 22 166 17.5228 166 12C166 6.47715 161.523 2 156 2C150.477 2 146 6.47715 146 12C146 17.5228 150.477 22 156 22Z" fill="white"/>
<path d="M165.5 12C165.5 17.2467 161.247 21.5 156 21.5C150.753 21.5 146.5 17.2467 146.5 12C146.5 6.75329 150.753 2.5 156 2.5C161.247 2.5 165.5 6.75329 165.5 12Z" stroke="#AFD0FF"/>
</g>
<defs>
<filter id="filter0_d_238_5359" x="44" y="0" width="28" height="28" filterUnits="userSpaceOnUse" color-interpolation-filters="sRGB">
<feFlood flood-opacity="0" result="BackgroundImageFix"/>
<feColorMatrix in="SourceAlpha" type="matrix" values="0 0 0 0 0 0 0 0 0 0 0 0 0 0 0 0 0 0 127 0" result="hardAlpha"/>
<feOffset dy="2"/>
<feGaussianBlur stdDeviation="2"/>
<feColorMatrix type="matrix" values="0 0 0 0 0.0627451 0 0 0 0 0 0 0 0 0 0 0 0 0 0.1 0"/>
<feBlend mode="normal" in2="BackgroundImageFix" result="effect1_dropShadow_238_5359"/>
<feBlend mode="normal" in="SourceGraphic" in2="effect1_dropShadow_238_5359" result="shape"/>
</filter>
<filter id="filter1_d_238_5359" x="142" y="0" width="28" height="28" filterUnits="userSpaceOnUse" color-interpolation-filters="sRGB">
<feFlood flood-opacity="0" result="BackgroundImageFix"/>
<feColorMatrix in="SourceAlpha" type="matrix" values="0 0 0 0 0 0 0 0 0 0 0 0 0 0 0 0 0 0 127 0" result="hardAlpha"/>
<feOffset dy="2"/>
<feGaussianBlur stdDeviation="2"/>
<feColorMatrix type="matrix" values="0 0 0 0 0.0627451 0 0 0 0 0 0 0 0 0 0 0 0 0 0.1 0"/>
<feBlend mode="normal" in2="BackgroundImageFix" result="effect1_dropShadow_238_5359"/>
<feBlend mode="normal" in="SourceGraphic" in2="effect1_dropShadow_238_5359" result="shape"/>
</filter>
</defs>
</svg>
