<svg width="200" height="32" viewBox="0 0 200 32" fill="none" xmlns="http://www.w3.org/2000/svg">
<path fill-rule="evenodd" clip-rule="evenodd" d="M19.8953 10.99L18.4834 10.9909C17.3762 10.9909 17.1616 11.5169 17.1616 12.2884V13.9909H19.8025L19.4584 16.6581H17.1616V23.5H14.4081V16.6581H12.1056V13.9909H14.4081V12.025C14.4081 9.74219 15.8022 8.5 17.8375 8.5C18.8125 8.5 19.6506 8.57219 19.8953 8.605V10.99ZM16 1C7.71625 1 1 7.71531 1 16C1 24.2837 7.71625 31 16 31C24.2847 31 31 24.2837 31 16C31 7.71531 24.2847 1 16 1Z" fill="#BDC4CD"/>
<path fill-rule="evenodd" clip-rule="evenodd" d="M63.9644 12.9409C63.97 13.0731 63.9738 13.2053 63.9738 13.3394C63.9738 17.4053 60.8781 22.0947 55.2175 22.0947C53.4794 22.0947 51.8622 21.5856 50.5 20.7128C50.7409 20.7409 50.9856 20.755 51.2341 20.755C52.6759 20.755 54.0025 20.2638 55.0562 19.4378C53.7091 19.4134 52.5728 18.5238 52.1809 17.3013C52.3694 17.3369 52.5616 17.3556 52.7603 17.3556C53.0406 17.3556 53.3125 17.3181 53.5712 17.2478C52.1631 16.9656 51.1028 15.7216 51.1028 14.2309C51.1028 14.2178 51.1028 14.2047 51.1028 14.1916C51.5172 14.4222 51.9925 14.5609 52.4969 14.5769C51.6709 14.0247 51.1272 13.0825 51.1272 12.0156C51.1272 11.4513 51.2791 10.9225 51.5444 10.4678C53.0622 12.3297 55.33 13.555 57.8875 13.6834C57.835 13.4584 57.8078 13.2231 57.8078 12.9822C57.8078 11.2825 59.1859 9.90438 60.8847 9.90438C61.7706 9.90438 62.5703 10.2784 63.1309 10.8766C63.8322 10.7388 64.4912 10.4828 65.0856 10.1303C64.8559 10.8484 64.3675 11.4513 63.7328 11.8328C64.3553 11.7578 64.9478 11.5928 65.5 11.3481C65.0875 11.965 64.5653 12.5069 63.9644 12.9409ZM58 1C49.7153 1 43 7.71531 43 16C43 24.2837 49.7153 31 58 31C66.2847 31 73 24.2837 73 16C73 7.71531 66.2847 1 58 1Z" fill="#BDC4CD"/>
<path fill-rule="evenodd" clip-rule="evenodd" d="M107.5 23.4859H104.392V18.6222C104.392 17.4625 104.372 15.9709 102.777 15.9709C101.16 15.9709 100.913 17.2347 100.913 18.5397V23.4859H97.8081V13.4847H100.787V14.8525H100.831C101.245 14.0659 102.259 13.2362 103.772 13.2362C106.919 13.2362 107.5 15.3072 107.5 18.0006V23.4859ZM94.3038 12.1187C93.3053 12.1187 92.5 11.3106 92.5 10.3159C92.5 9.32125 93.3053 8.51312 94.3038 8.51312C95.2975 8.51312 96.1047 9.32125 96.1047 10.3159C96.1047 11.3106 95.2975 12.1187 94.3038 12.1187ZM95.8581 23.4859H92.7466V13.4847H95.8581V23.4859ZM100 1C91.7153 1 85 7.71531 85 16C85 24.2837 91.7153 31 100 31C108.285 31 115 24.2837 115 16C115 7.71531 108.285 1 100 1Z" fill="#BDC4CD"/>
<path fill-rule="evenodd" clip-rule="evenodd" d="M142.018 18.8948C143.61 18.8948 144.902 17.6067 144.902 16.0167C144.902 14.4276 143.61 13.1395 142.018 13.1395C140.425 13.1395 139.133 14.4276 139.133 16.0167C139.133 17.6067 140.425 18.8948 142.018 18.8948ZM145.339 13.0694H147.367C147.599 13.0694 147.787 12.8819 147.787 12.6512V10.6272C147.787 10.3966 147.599 10.2091 147.367 10.2091H145.339C145.108 10.2091 144.919 10.3966 144.919 10.6272V12.6512C144.919 12.8819 145.108 13.0694 145.339 13.0694ZM149.5 21.7206C149.5 22.7031 148.702 23.5 147.717 23.5H136.283C135.299 23.5 134.5 22.7031 134.5 21.7206V10.2784C134.5 9.29594 135.299 8.5 136.283 8.5H147.717C148.702 8.5 149.5 9.29594 149.5 10.2784V21.7206ZM142 1C133.715 1 127 7.71531 127 16C127 24.2837 133.715 31 142 31C150.285 31 157 24.2837 157 16C157 7.71531 150.285 1 142 1ZM146.58 16.0171C146.58 18.5268 144.534 20.5696 142.018 20.5696C139.501 20.5696 137.455 18.5268 137.455 16.0171C137.455 15.6008 137.511 15.1967 137.617 14.8133H136.214V21.3364C136.214 21.568 136.401 21.7555 136.633 21.7555H147.402C147.634 21.7555 147.822 21.568 147.822 21.3364V14.8133H146.418C146.524 15.1967 146.58 15.6008 146.58 16.0171Z" fill="#BDC4CD"/>
<path fill-rule="evenodd" clip-rule="evenodd" d="M191.5 16.5662C191.5 17.7803 191.35 18.9944 191.35 18.9944C191.35 18.9944 191.204 20.0275 190.754 20.4831C190.184 21.0803 189.544 21.0831 189.251 21.1178C187.152 21.2697 184 21.2744 184 21.2744C184 21.2744 180.1 21.2388 178.9 21.1244C178.566 21.0616 177.816 21.0803 177.246 20.4831C176.796 20.0275 176.65 18.9944 176.65 18.9944C176.65 18.9944 176.5 17.7803 176.5 16.5662V15.4281C176.5 14.2141 176.65 13.0009 176.65 13.0009C176.65 13.0009 176.796 11.9669 177.246 11.5113C177.816 10.9141 178.456 10.9113 178.749 10.8766C180.848 10.7247 183.997 10.7247 183.997 10.7247H184.003C184.003 10.7247 187.152 10.7247 189.251 10.8766C189.544 10.9113 190.184 10.9141 190.754 11.5113C191.204 11.9669 191.35 13.0009 191.35 13.0009C191.35 13.0009 191.5 14.2141 191.5 15.4281V16.5662ZM184 1C175.715 1 169 7.71531 169 16C169 24.2837 175.715 31 184 31C192.285 31 199 24.2837 199 16C199 7.71531 192.285 1 184 1ZM182.451 17.9453L186.504 15.8453L182.45 13.7303L182.451 17.9453Z" fill="#BDC4CD"/>
</svg>
