<svg width="48" height="48" viewBox="0 0 48 48" fill="none" xmlns="http://www.w3.org/2000/svg">
<circle cx="24" cy="24" r="24" fill="#DEE2E7"/>
<path fill-rule="evenodd" clip-rule="evenodd" d="M31.5 20H29V18C29 16.9 28.1 16 27 16H15C13.9 16 13 16.9 13 18V27C13 28.1 13.9 29 15 29C15 30.66 16.34 32 18 32C19.66 32 21 30.66 21 29H27C27 30.66 28.34 32 30 32C31.66 32 33 30.66 33 29H34C34.55 29 35 28.55 35 28V24.67C35 24.24 34.86 23.82 34.6 23.47L32.3 20.4C32.11 20.15 31.81 20 31.5 20ZM18 30C17.45 30 17 29.55 17 29C17 28.45 17.45 28 18 28C18.55 28 19 28.45 19 29C19 29.55 18.55 30 18 30ZM31.5 21.5L33.46 24H29V21.5H31.5ZM30 30C29.45 30 29 29.55 29 29C29 28.45 29.45 28 30 28C30.55 28 31 28.45 31 29C31 29.55 30.55 30 30 30Z" fill="#8B96A5"/>
</svg>
