<svg width="22" height="22" viewBox="0 0 22 22" fill="none" xmlns="http://www.w3.org/2000/svg">
<path d="M14.4417 13.067H13.7176L13.4609 12.8195C14.3592 11.7745 14.9001 10.4178 14.9001 8.94198C14.9001 5.65114 12.2326 2.98364 8.94173 2.98364C5.6509 2.98364 2.9834 5.65114 2.9834 8.94198C2.9834 12.2328 5.6509 14.9003 8.94173 14.9003C10.4176 14.9003 11.7742 14.3595 12.8192 13.4611L13.0667 13.7178V14.442L17.6501 19.0161L19.0159 17.6503L14.4417 13.067ZM8.94173 13.067C6.65923 13.067 4.81673 11.2245 4.81673 8.94198C4.81673 6.65948 6.65923 4.81698 8.94173 4.81698C11.2242 4.81698 13.0667 6.65948 13.0667 8.94198C13.0667 11.2245 11.2242 13.067 8.94173 13.067Z" fill="#8B96A5"/>
</svg>
