<svg width="18" height="18" viewBox="0 0 18 18" fill="none" xmlns="http://www.w3.org/2000/svg">
<path d="M16.5 7.11745H12.9075L9.6225 2.19745C9.48 1.98745 9.24 1.88245 9 1.88245C8.76 1.88245 8.52 1.98745 8.3775 2.20495L5.0925 7.11745H1.5C1.0875 7.11745 0.75 7.45495 0.75 7.86745C0.75 7.93495 0.7575 8.00245 0.78 8.06995L2.685 15.0224C2.8575 15.6524 3.435 16.1174 4.125 16.1174H13.875C14.565 16.1174 15.1425 15.6524 15.3225 15.0224L17.2275 8.06995L17.25 7.86745C17.25 7.45495 16.9125 7.11745 16.5 7.11745ZM9 3.96745L11.1 7.11745H6.9L9 3.96745ZM13.875 14.6174L4.1325 14.6249L2.4825 8.61745H15.525L13.875 14.6174ZM9 10.1174C8.175 10.1174 7.5 10.7924 7.5 11.6174C7.5 12.4424 8.175 13.1174 9 13.1174C9.825 13.1174 10.5 12.4424 10.5 11.6174C10.5 10.7924 9.825 10.1174 9 10.1174Z" fill="#BDC4CD"/>
</svg>
