<svg width="20" height="20" viewBox="0 0 20 20" fill="none" xmlns="http://www.w3.org/2000/svg">
<path d="M9.99199 1.66663C5.39199 1.66663 1.66699 5.39996 1.66699 9.99996C1.66699 14.6 5.39199 18.3333 9.99199 18.3333C14.6003 18.3333 18.3337 14.6 18.3337 9.99996C18.3337 5.39996 14.6003 1.66663 9.99199 1.66663ZM15.767 6.66663H13.3087C13.042 5.62496 12.6587 4.62496 12.1587 3.69996C13.692 4.22496 14.967 5.29163 15.767 6.66663ZM10.0003 3.36663C10.692 4.36663 11.2337 5.47496 11.592 6.66663H8.40866C8.76699 5.47496 9.30866 4.36663 10.0003 3.36663ZM3.55033 11.6666C3.41699 11.1333 3.33366 10.575 3.33366 9.99996C3.33366 9.42496 3.41699 8.86663 3.55033 8.33329H6.36699C6.30033 8.88329 6.25033 9.43329 6.25033 9.99996C6.25033 10.5666 6.30033 11.1166 6.36699 11.6666H3.55033ZM4.23366 13.3333H6.69199C6.95866 14.375 7.34199 15.375 7.84199 16.3C6.30866 15.775 5.03366 14.7166 4.23366 13.3333ZM6.69199 6.66663H4.23366C5.03366 5.28329 6.30866 4.22496 7.84199 3.69996C7.34199 4.62496 6.95866 5.62496 6.69199 6.66663ZM10.0003 16.6333C9.30866 15.6333 8.76699 14.525 8.40866 13.3333H11.592C11.2337 14.525 10.692 15.6333 10.0003 16.6333ZM11.9503 11.6666H8.05033C7.97533 11.1166 7.91699 10.5666 7.91699 9.99996C7.91699 9.43329 7.97533 8.87496 8.05033 8.33329H11.9503C12.0253 8.87496 12.0837 9.43329 12.0837 9.99996C12.0837 10.5666 12.0253 11.1166 11.9503 11.6666ZM12.1587 16.3C12.6587 15.375 13.042 14.375 13.3087 13.3333H15.767C14.967 14.7083 13.692 15.775 12.1587 16.3ZM13.6337 11.6666C13.7003 11.1166 13.7503 10.5666 13.7503 9.99996C13.7503 9.43329 13.7003 8.88329 13.6337 8.33329H16.4503C16.5837 8.86663 16.667 9.42496 16.667 9.99996C16.667 10.575 16.5837 11.1333 16.4503 11.6666H13.6337Z" fill="#8B96A5"/>
</svg>
