<svg width="48" height="48" viewBox="0 0 48 48" fill="none" xmlns="http://www.w3.org/2000/svg">
<circle cx="24" cy="24" r="24" fill="#DEE2E7"/>
<path fill-rule="evenodd" clip-rule="evenodd" d="M30 20H29V18C29 15.24 26.76 13 24 13C21.24 13 19 15.24 19 18V20H18C16.9 20 16 20.9 16 22V32C16 33.1 16.9 34 18 34H30C31.1 34 32 33.1 32 32V22C32 20.9 31.1 20 30 20ZM24 29C22.9 29 22 28.1 22 27C22 25.9 22.9 25 24 25C25.1 25 26 25.9 26 27C26 28.1 25.1 29 24 29ZM21 20V18C21 16.34 22.34 15 24 15C25.66 15 27 16.34 27 18V20H21Z" fill="#8B96A5"/>
</svg>
