<svg width="104" height="26" viewBox="0 0 104 26" fill="none" xmlns="http://www.w3.org/2000/svg">
<path d="M28.1176 3.19068H25.5789V3.93855H27.3795C27.2904 4.98738 26.4116 5.43466 25.582 5.43466C24.5206 5.43466 23.5944 4.60558 23.5944 3.44346C23.5944 2.31147 24.4773 1.4397 25.5842 1.4397C26.4385 1.4397 26.9417 1.98015 26.9417 1.98015L27.4692 1.43788C27.4692 1.43788 26.7921 0.689636 25.5573 0.689636C23.985 0.689636 22.7687 2.0071 22.7687 3.43005C22.7687 4.82459 23.9129 6.18412 25.5973 6.18412C27.0791 6.18412 28.1637 5.17663 28.1637 3.68662C28.1637 3.37225 28.1176 3.19068 28.1176 3.19068Z" fill="white"/>
<path d="M28.5959 15.2445H34.1744C34.1783 15.2602 34.2752 15.6573 34.2752 16.334C34.2752 19.6082 31.8921 21.8224 28.6364 21.8224C24.9347 21.8224 22.4205 18.8347 22.4205 15.7706C22.4205 12.6437 25.0934 9.74863 28.5484 9.74875C31.2617 9.74875 32.7494 11.3929 32.7494 11.3929L31.5903 12.5845C31.5903 12.5845 30.4844 11.3967 28.6076 11.3967C26.1751 11.3967 24.235 13.3124 24.235 15.7999C24.235 18.3533 26.2702 20.1752 28.6025 20.1752C30.4255 20.1752 32.3567 19.1923 32.5523 16.8879H28.5959V15.2445Z" fill="white"/>
<path fill-rule="evenodd" clip-rule="evenodd" d="M34.9869 17.903C34.9869 15.8309 36.6273 14.0543 38.9165 14.0543C40.798 14.0543 42.8385 15.378 42.8385 17.9482C42.8385 20.1906 41.0843 21.8153 38.9431 21.8153C36.5779 21.8153 34.9869 20.0057 34.9869 17.903ZM41.1315 17.9379C41.1315 16.482 40.0648 15.5785 38.9391 15.5785C37.6743 15.5785 36.7022 16.5824 36.7022 17.9266C36.7022 19.3003 37.6865 20.2921 38.9339 20.2921C40.0693 20.2921 41.1315 19.3628 41.1315 17.9379Z" fill="white"/>
<path fill-rule="evenodd" clip-rule="evenodd" d="M47.5553 14.0543C45.2662 14.0543 43.6257 15.8309 43.6257 17.903C43.6257 20.0057 45.2168 21.8153 47.5822 21.8153C49.7233 21.8153 51.4774 20.1906 51.4774 17.9482C51.4774 15.378 49.4371 14.0543 47.5553 14.0543ZM47.578 15.5785C48.7036 15.5785 49.7704 16.482 49.7704 17.9379C49.7704 19.3628 48.7082 20.2921 47.5727 20.2921C46.3254 20.2921 45.3413 19.3003 45.3413 17.9266C45.3413 16.5824 46.3131 15.5785 47.578 15.5785Z" fill="white"/>
<path fill-rule="evenodd" clip-rule="evenodd" d="M52.2644 17.9357C52.2644 15.8853 53.9161 14.0584 56.017 14.0584C56.9317 14.0584 57.6208 14.4099 58.1246 14.949V14.2917H59.7634V21.2646C59.7634 24.0043 58.1713 25.3103 56.0822 25.3103C54.1724 25.3103 53.0996 24.1446 52.5665 23.0252L54.0689 22.4018C54.277 22.9018 54.8759 23.7836 56.0698 23.7836C57.3057 23.7836 58.1245 22.9815 58.1245 21.6427V20.8775C57.6872 21.3813 57.0949 21.8205 55.9807 21.8205C54.1791 21.8205 52.2644 20.2715 52.2644 17.9357ZM56.169 15.5796C57.1992 15.5796 58.257 16.4528 58.257 17.944C58.257 19.4598 57.2014 20.2951 56.1463 20.2951C55.0264 20.2951 53.984 19.3922 53.984 17.9584C53.984 16.4686 55.0665 15.5796 56.169 15.5796Z" fill="white"/>
<path fill-rule="evenodd" clip-rule="evenodd" d="M63.7488 17.9245C63.7488 15.6146 65.4128 14.0491 67.3947 14.0491C68.9578 14.0491 70.1389 15.0841 70.6452 16.3232L70.9174 16.9559L65.6761 19.1149C65.9892 19.6935 66.4946 20.2909 67.5933 20.291C68.5715 20.291 69.1578 19.763 69.5085 19.2227L70.8596 20.1153C70.2538 20.9201 69.2388 21.8183 67.585 21.8183C65.6035 21.8183 63.7488 20.3687 63.7488 17.9245ZM67.4631 15.5416C68.1772 15.5416 68.6911 15.9184 68.9094 16.3705L65.4092 17.8228C65.2584 16.6984 66.3316 15.5416 67.4631 15.5416Z" fill="white"/>
<path d="M62.7993 21.5879H61.0777V10.1501H62.7993V21.5879Z" fill="white"/>
<path d="M84.1598 21.5879H85.8814V10.1501H84.1598V21.5879Z" fill="white"/>
<path fill-rule="evenodd" clip-rule="evenodd" d="M76.7519 21.5879H75.0303V10.1501L79.1948 10.1499C81.2135 10.1499 82.8651 11.7896 82.8651 13.7937C82.8651 15.7977 81.2135 17.4373 79.1948 17.4373H76.7519V21.5879ZM76.7519 15.7282V11.8591H79.1947C80.2633 11.8591 81.1436 12.7329 81.1436 13.7937C81.1436 14.8544 80.2633 15.7282 79.1947 15.7282H76.7519Z" fill="white"/>
<path d="M98.5922 25.3103L103.577 14.0493H101.697L99.4409 19.1452L97.1851 14.0493H95.3048L98.5007 21.2692L96.7119 25.3103H98.5922Z" fill="white"/>
<path fill-rule="evenodd" clip-rule="evenodd" d="M92.9273 21.5879H94.6489V17.4742C94.9183 13.2314 89.5001 12.2336 87.45 15.2921L88.8354 16.215C89.8378 14.4751 92.6983 14.8755 92.8863 16.7401C92.0266 16.514 91.0979 16.3501 90.2494 16.4353C88.9249 16.5684 87.7909 17.4034 87.6107 18.7712C87.5133 19.5102 87.6795 20.4213 88.1992 20.9765C89.0092 21.8415 90.3389 21.9581 91.4314 21.6625C92.0464 21.4961 92.5306 21.1333 92.9273 20.6647V21.5879ZM91.0221 20.1717C91.9644 19.9169 92.7071 19.2327 92.9273 18.2816C92.4456 18.1267 92.0024 18.0017 91.4945 17.9408C88.5361 17.4993 89.0314 20.7104 91.0221 20.1717Z" fill="white"/>
<path d="M39.2774 6.07755H38.494V0.872306H39.2774V6.07755Z" fill="white"/>
<path d="M34.1063 6.07755H34.8899V1.65006H36.1759V0.872306H32.8203V1.65006H34.1063V6.07755Z" fill="white"/>
<path d="M31.9942 6.07755H28.9896V0.872306H31.9942V1.65006H29.7731V3.08605H31.7268V3.8638H29.7731V5.29967H31.9942V6.07755Z" fill="white"/>
<path d="M41.9847 6.07755V1.65006H43.2707V0.872306H39.9152V1.65006H41.2013V6.07755H41.9847Z" fill="white"/>
<path fill-rule="evenodd" clip-rule="evenodd" d="M45.2866 3.43005C45.2866 2.00698 46.503 0.689636 48.0754 0.689636C49.6477 0.689636 50.8641 2.00698 50.8641 3.43005C50.8641 4.81337 49.738 6.1623 48.0754 6.18364C46.4127 6.1623 45.2866 4.81337 45.2866 3.43005ZM48.0754 5.4343C47.0243 5.42149 46.1124 4.59655 46.1124 3.44346C46.1124 2.32074 46.9811 1.45397 48.0754 1.43995C49.1698 1.45397 50.0383 2.32074 50.0383 3.44346C50.0383 4.59655 49.1264 5.42149 48.0754 5.4343Z" fill="white"/>
<path d="M52.4302 6.07755H51.6467V0.872306H52.4302L54.9452 4.66191V0.872306H55.7287V6.07755H54.9465L52.4302 2.28599V6.07755Z" fill="white"/>
<path d="M1.37601 7.18222L10.2282 15.9572L1.41851 24.8091C1.16142 24.647 1.0236 24.2958 1.02127 23.8421L0.941431 8.1313C0.938974 7.63451 1.12101 7.33148 1.37601 7.18222Z" fill="white"/>
<path d="M2.38297 7.19405L13.1472 13.0242L10.5943 15.5892L2.00736 7.07687C2.13743 7.09382 2.268 7.13174 2.38297 7.19405Z" fill="white"/>
<path d="M13.6259 18.5943L10.9631 15.9546L13.6232 13.282L17.2865 15.2659C18.1889 15.7544 17.7273 16.3656 17.2865 16.6051L13.6259 18.5943Z" fill="white"/>
<path d="M2.38297 24.7031C2.30166 24.7482 2.22329 24.7835 2.14824 24.8116L10.5969 16.3227L13.1494 18.853L2.38297 24.7031Z" fill="white"/>
</svg>
