<svg width="104" height="26" viewBox="0 0 104 26" fill="none" xmlns="http://www.w3.org/2000/svg">
<path d="M28.1173 3.19074H25.5787V3.93861H27.3793C27.2902 4.98744 26.4113 5.43473 25.5818 5.43473C24.5204 5.43473 23.5941 4.60564 23.5941 3.44353C23.5941 2.31153 24.477 1.43977 25.584 1.43977C26.4383 1.43977 26.9415 1.98022 26.9415 1.98022L27.4689 1.43794C27.4689 1.43794 26.7919 0.689697 25.5571 0.689697C23.9847 0.689697 22.7684 2.00716 22.7684 3.43011C22.7684 4.82465 23.9126 6.18418 25.5971 6.18418C27.0788 6.18418 28.1634 5.1767 28.1634 3.68668C28.1634 3.37231 28.1173 3.19074 28.1173 3.19074Z" fill="white"/>
<path d="M28.5957 15.2445H34.1741C34.178 15.2603 34.275 15.6573 34.275 16.3341C34.275 19.6082 31.8918 21.8225 28.6362 21.8225C24.9344 21.8225 22.4202 18.8347 22.4202 15.7707C22.4202 12.6437 25.0931 9.74869 28.5481 9.74881C31.2614 9.74881 32.7492 11.393 32.7492 11.393L31.59 12.5846C31.59 12.5846 30.4842 11.3967 28.6073 11.3967C26.1749 11.3967 24.2348 13.3125 24.2348 15.8C24.2348 18.3533 26.27 20.1753 28.6023 20.1753C30.4252 20.1753 32.3565 19.1924 32.552 16.8879H28.5957V15.2445Z" fill="white"/>
<path fill-rule="evenodd" clip-rule="evenodd" d="M34.9867 17.9031C34.9867 15.8309 36.6271 14.0544 38.9162 14.0544C40.7978 14.0544 42.8382 15.378 42.8382 17.9482C42.8382 20.1906 41.0841 21.8154 38.9429 21.8154C36.5777 21.8154 34.9867 20.0058 34.9867 17.9031ZM41.1313 17.938C41.1313 16.4821 40.0646 15.5785 38.9389 15.5785C37.6741 15.5785 36.702 16.5825 36.702 17.9266C36.702 19.3003 37.6862 20.2922 38.9337 20.2922C40.069 20.2922 41.1313 19.3629 41.1313 17.938Z" fill="white"/>
<path fill-rule="evenodd" clip-rule="evenodd" d="M47.5551 14.0544C45.266 14.0544 43.6255 15.8309 43.6255 17.9031C43.6255 20.0058 45.2166 21.8154 47.582 21.8154C49.723 21.8154 51.4772 20.1906 51.4772 17.9482C51.4772 15.378 49.4368 14.0544 47.5551 14.0544ZM47.5778 15.5785C48.7034 15.5785 49.7702 16.4821 49.7702 17.938C49.7702 19.3629 48.7079 20.2922 47.5725 20.2922C46.3252 20.2922 45.341 19.3003 45.341 17.9266C45.341 16.5825 46.3129 15.5785 47.5778 15.5785Z" fill="white"/>
<path fill-rule="evenodd" clip-rule="evenodd" d="M52.2641 17.9358C52.2641 15.8853 53.9158 14.0585 56.0167 14.0585C56.9315 14.0585 57.6205 14.4099 58.1244 14.9491V14.2918H59.7632V21.2647C59.7632 24.0044 58.1711 25.3104 56.082 25.3104C54.1722 25.3104 53.0994 24.1446 52.5663 23.0253L54.0686 22.4018C54.2767 22.9019 54.8756 23.7837 56.0695 23.7837C57.3055 23.7837 58.1243 22.9815 58.1243 21.6427V20.8775C57.687 21.3814 57.0947 21.8205 55.9805 21.8205C54.1788 21.8205 52.2641 20.2716 52.2641 17.9358ZM56.1688 15.5796C57.199 15.5796 58.2568 16.4528 58.2568 17.9441C58.2568 19.4598 57.2012 20.2951 56.1461 20.2951C55.0261 20.2951 53.9838 19.3923 53.9838 17.9585C53.9838 16.4687 55.0663 15.5796 56.1688 15.5796Z" fill="white"/>
<path fill-rule="evenodd" clip-rule="evenodd" d="M63.7486 17.9246C63.7486 15.6146 65.4125 14.0491 67.3944 14.0491C68.9575 14.0491 70.1387 15.0842 70.645 16.3232L70.9172 16.956L65.6759 19.115C65.989 19.6936 66.4943 20.291 67.593 20.2911C68.5712 20.2911 69.1575 19.7631 69.5082 19.2228L70.8593 20.1154C70.2535 20.9202 69.2386 21.8183 67.5848 21.8183C65.6033 21.8183 63.7486 20.3688 63.7486 17.9246ZM67.4628 15.5417C68.177 15.5417 68.6909 15.9185 68.9092 16.3705L65.409 17.8229C65.2581 16.6984 66.3313 15.5417 67.4628 15.5417Z" fill="white"/>
<path d="M62.7991 21.588H61.0775V10.1501H62.7991V21.588Z" fill="white"/>
<path d="M84.1596 21.588H85.8812V10.1501H84.1596V21.588Z" fill="white"/>
<path fill-rule="evenodd" clip-rule="evenodd" d="M76.7517 21.588H75.0301V10.1501L79.1945 10.15C81.2132 10.15 82.8648 11.7896 82.8648 13.7938C82.8648 15.7978 81.2132 17.4374 79.1945 17.4374H76.7517V21.588ZM76.7516 15.7283V11.8591H79.1945C80.263 11.8591 81.1433 12.733 81.1433 13.7938C81.1433 14.8544 80.263 15.7283 79.1945 15.7283H76.7516Z" fill="white"/>
<path d="M98.5919 25.3104L103.577 14.0494H101.696L99.4406 19.1452L97.1849 14.0494H95.3046L98.5004 21.2693L96.7116 25.3104H98.5919Z" fill="white"/>
<path fill-rule="evenodd" clip-rule="evenodd" d="M92.9271 21.588H94.6487V17.4742C94.9181 13.2315 89.4999 12.2336 87.4497 15.2922L88.8351 16.2151C89.8375 14.4752 92.698 14.8755 92.8861 16.7401C92.0264 16.5141 91.0977 16.3502 90.2491 16.4354C88.9247 16.5684 87.7907 17.4035 87.6105 18.7712C87.5131 19.5103 87.6793 20.4213 88.199 20.9765C89.0089 21.8416 90.3387 21.9582 91.4311 21.6626C92.0462 21.4961 92.5304 21.1334 92.9271 20.6647V21.588ZM91.0219 20.1717C91.9641 19.917 92.7069 19.2328 92.9271 18.2816C92.4454 18.1268 92.0022 18.0018 91.4943 17.9409C88.5359 17.4994 89.0312 20.7105 91.0219 20.1717Z" fill="white"/>
<path d="M39.2771 6.07761H38.4937V0.872367H39.2771V6.07761Z" fill="white"/>
<path d="M34.1061 6.07761H34.8896V1.65012H36.1757V0.872367H32.82V1.65012H34.1061V6.07761Z" fill="white"/>
<path d="M31.994 6.07761H28.9893V0.872367H31.994V1.65012H29.7729V3.08611H31.7266V3.86386H29.7729V5.29974H31.994V6.07761Z" fill="white"/>
<path d="M41.9844 6.07761V1.65012H43.2705V0.872367H39.915V1.65012H41.201V6.07761H41.9844Z" fill="white"/>
<path fill-rule="evenodd" clip-rule="evenodd" d="M45.2864 3.43011C45.2864 2.00704 46.5028 0.689697 48.0751 0.689697C49.6475 0.689697 50.8639 2.00704 50.8639 3.43011C50.8639 4.81343 49.7378 6.16236 48.0751 6.1837C46.4125 6.16236 45.2864 4.81343 45.2864 3.43011ZM48.0751 5.43436C47.0241 5.42156 46.1122 4.59661 46.1122 3.44353C46.1122 2.3208 46.9808 1.45403 48.0751 1.44001C49.1695 1.45403 50.0381 2.3208 50.0381 3.44353C50.0381 4.59661 49.1262 5.42156 48.0751 5.43436Z" fill="white"/>
<path d="M52.43 6.07761H51.6464V0.872367H52.43L54.9449 4.66198V0.872367H55.7285V6.07761H54.9463L52.43 2.28605V6.07761Z" fill="white"/>
<path d="M1.37576 7.18228L10.2279 15.9573L1.41826 24.8092C1.16118 24.647 1.02336 24.2958 1.02103 23.8422L0.941187 8.13136C0.93873 7.63457 1.12077 7.33154 1.37576 7.18228Z" fill="white"/>
<path d="M2.38273 7.19411L13.147 13.0243L10.5941 15.5892L2.00711 7.07693C2.13719 7.09388 2.26776 7.1318 2.38273 7.19411Z" fill="white"/>
<path d="M13.6257 18.5944L10.9628 15.9547L13.623 13.2821L17.2863 15.266C18.1887 15.7545 17.7271 16.3657 17.2863 16.6052L13.6257 18.5944Z" fill="white"/>
<path d="M2.38273 24.7031C2.30141 24.7482 2.22305 24.7836 2.148 24.8116L10.5967 16.3227L13.1492 18.853L2.38273 24.7031Z" fill="white"/>
</svg>
