<svg width="360" height="56" viewBox="0 0 360 56" fill="none" xmlns="http://www.w3.org/2000/svg">
<rect width="360" height="56" fill="white"/>
<path d="M36 27H23.83L29.42 21.41L28 20L20 28L28 36L29.41 34.59L23.83 29H36V27Z" fill="#1C1C1C"/>
<path d="M332 22C333.1 22 334 22.9 334 24C334 25.1 333.1 26 332 26C330.9 26 330 25.1 330 24C330 22.9 330.9 22 332 22ZM332 32C334.7 32 337.8 33.29 338 34H326C326.23 33.28 329.31 32 332 32ZM332 20C329.79 20 328 21.79 328 24C328 26.21 329.79 28 332 28C334.21 28 336 26.21 336 24C336 21.79 334.21 20 332 20ZM332 30C329.33 30 324 31.34 324 34V36H340V34C340 31.34 334.67 30 332 30Z" fill="#1C1C1C"/>
<path d="M292.546 29C293.296 29 293.956 28.59 294.296 27.97L297.876 21.48C298.246 20.82 297.766 20 297.006 20H282.206L281.266 18H277.996V20H279.996L283.596 27.59L282.246 30.03C281.516 31.37 282.476 33 283.996 33H295.996V31H283.996L285.096 29H292.546ZM283.156 22H295.306L292.546 27H285.526L283.156 22ZM283.996 34C282.896 34 282.006 34.9 282.006 36C282.006 37.1 282.896 38 283.996 38C285.096 38 285.996 37.1 285.996 36C285.996 34.9 285.096 34 283.996 34ZM293.996 34C292.896 34 292.006 34.9 292.006 36C292.006 37.1 292.896 38 293.996 38C295.096 38 295.996 37.1 295.996 36C295.996 34.9 295.096 34 293.996 34Z" fill="#1C1C1C"/>
</svg>
