<svg width="360" height="56" viewBox="0 0 360 56" fill="none" xmlns="http://www.w3.org/2000/svg">
<rect width="360" height="56" fill="white"/>
<path d="M19 34H37V32H19V34ZM19 29H37V27H19V29ZM19 22V24H37V22H19Z" fill="#1C1C1C"/>
<path d="M332 22C333.1 22 334 22.9 334 24C334 25.1 333.1 26 332 26C330.9 26 330 25.1 330 24C330 22.9 330.9 22 332 22ZM332 32C334.7 32 337.8 33.29 338 34H326C326.23 33.28 329.31 32 332 32ZM332 20C329.79 20 328 21.79 328 24C328 26.21 329.79 28 332 28C334.21 28 336 26.21 336 24C336 21.79 334.21 20 332 20ZM332 30C329.33 30 324 31.34 324 34V36H340V34C340 31.34 334.67 30 332 30Z" fill="#1C1C1C"/>
<path d="M292.546 29C293.296 29 293.956 28.59 294.296 27.97L297.876 21.48C298.246 20.82 297.766 20 297.006 20H282.206L281.266 18H277.996V20H279.996L283.596 27.59L282.246 30.03C281.516 31.37 282.476 33 283.996 33H295.996V31H283.996L285.096 29H292.546ZM283.156 22H295.306L292.546 27H285.526L283.156 22ZM283.996 34C282.896 34 282.006 34.9 282.006 36C282.006 37.1 282.896 38 283.996 38C285.096 38 285.996 37.1 285.996 36C285.996 34.9 285.096 34 283.996 34ZM293.996 34C292.896 34 292.006 34.9 292.006 36C292.006 37.1 292.896 38 293.996 38C295.096 38 295.996 37.1 295.996 36C295.996 34.9 295.096 34 293.996 34Z" fill="#1C1C1C"/>
<path d="M96.0586 35.6744H102.933C106.547 35.6744 108.472 33.7663 108.472 31.1743C108.472 28.7653 106.767 27.3103 104.936 27.2228V27.0638C106.61 26.6822 107.843 25.4816 107.843 23.5655C107.843 21.1246 106.052 19.3914 102.501 19.3914H96.0586V35.6744ZM99.4605 32.8599V28.5347H102.312C103.947 28.5347 104.96 29.4888 104.96 30.8324C104.96 32.0569 104.135 32.8599 102.234 32.8599H99.4605ZM99.4605 26.2051V22.1741H102.045C103.554 22.1741 104.41 22.9612 104.41 24.1379C104.41 25.426 103.373 26.2051 101.982 26.2051H99.4605Z" fill="#8CB7F5"/>
<path d="M110.214 35.6744H113.561V28.7653C113.561 27.2626 114.645 26.229 116.122 26.229C116.586 26.229 117.222 26.3085 117.536 26.4118V23.4065C117.238 23.3349 116.821 23.2872 116.484 23.2872C115.132 23.2872 114.025 24.0823 113.585 25.5929H113.459V23.4621H110.214V35.6744Z" fill="#8CB7F5"/>
<path d="M121.954 35.905C123.737 35.905 124.892 35.1179 125.481 33.9809H125.576V35.6744H128.75V27.4375C128.75 24.5275 126.314 23.3031 123.627 23.3031C120.736 23.3031 118.835 24.7024 118.371 26.9286L121.467 27.1831C121.695 26.3721 122.409 25.7758 123.611 25.7758C124.751 25.7758 125.403 26.3562 125.403 27.358V27.4057C125.403 28.1928 124.578 28.2962 122.48 28.5029C120.092 28.7255 117.947 29.5365 117.947 32.2636C117.947 34.6806 119.652 35.905 121.954 35.905ZM122.912 33.5675C121.883 33.5675 121.145 33.0825 121.145 32.1523C121.145 31.1982 121.922 30.7291 123.101 30.5621C123.831 30.4588 125.026 30.2838 125.426 30.0135V31.3095C125.426 32.5895 124.381 33.5675 122.912 33.5675Z" fill="#8CB7F5"/>
<path d="M134.285 28.6142C134.292 27.0399 135.22 26.1177 136.571 26.1177C137.914 26.1177 138.724 27.0081 138.716 28.5029V35.6744H142.063V27.8986C142.063 25.0523 140.413 23.3031 137.899 23.3031C136.107 23.3031 134.811 24.1936 134.269 25.6168H134.127V23.4621H130.938V35.6744H134.285V28.6142Z" fill="#8CB7F5"/>
<path d="M148.739 35.8732C150.687 35.8732 151.701 34.7362 152.164 33.7186H152.306V35.6744H155.605V19.3914H152.266V25.5134H152.164C151.716 24.5196 150.75 23.3031 148.731 23.3031C146.083 23.3031 143.844 25.3862 143.844 29.5842C143.844 33.6708 145.989 35.8732 148.739 35.8732ZM149.799 33.1779C148.157 33.1779 147.262 31.6991 147.262 29.5683C147.262 27.4534 148.142 25.9984 149.799 25.9984C151.426 25.9984 152.337 27.3898 152.337 29.5683C152.337 31.7468 151.41 33.1779 149.799 33.1779Z" fill="#8CB7F5"/>
<g opacity="0.8">
<path fill-rule="evenodd" clip-rule="evenodd" d="M68.415 12.2798H85.9831C88.8939 12.2798 91.2535 14.9191 91.2535 18.1749V37.8252C91.2535 41.0809 88.8939 43.7202 85.9831 43.7202H68.415C65.5042 43.7202 63.1445 41.0809 63.1445 37.8252L63.1445 18.1749C63.1445 14.9191 65.5042 12.2798 68.415 12.2798Z" fill="#0D6EFD" fill-opacity="0.2"/>
<path fill-rule="evenodd" clip-rule="evenodd" d="M63.5136 12.2798H82.0064C85.0704 12.2798 87.5542 14.9191 87.5542 18.1749V37.8252C87.5542 41.0809 85.0704 43.7202 82.0064 43.7202H63.5136C60.4497 43.7202 57.9658 41.0809 57.9658 37.8252L57.9658 18.1749C57.9658 14.9191 60.4497 12.2798 63.5136 12.2798Z" fill="#0D6EFD"/>
<g opacity="0.7">
<path opacity="0.3" fill-rule="evenodd" clip-rule="evenodd" d="M69.0509 25.1484H68.2927C68.2536 25.1484 68.1956 25.2035 68.1934 25.2398L67.6348 34.3765L78.0716 34.3745L77.5074 25.2398C77.5053 25.2048 77.4459 25.1484 77.4082 25.1484H76.6499V26.6865C76.6499 27.1112 76.3097 27.4555 75.89 27.4555C75.4703 27.4555 75.1301 27.1112 75.1301 26.6865V25.1484H70.5707V26.6865C70.5707 27.1112 70.2305 27.4555 69.8108 27.4555C69.3912 27.4555 69.0509 27.1112 69.0509 26.6865V25.1484Z" fill="white"/>
<path fill-rule="evenodd" clip-rule="evenodd" d="M72.8509 19.7656C74.9482 19.7656 76.6503 21.4884 76.6503 23.6089L77.4086 23.6107C78.2489 23.6107 78.9725 24.2986 79.0247 25.1441L79.5952 34.3814C79.6475 35.2283 79.0116 35.9148 78.1739 35.9148H67.5279C66.6906 35.9148 66.0543 35.2269 66.1065 34.3814L66.677 25.1441C66.7293 24.2972 67.4514 23.6107 68.2931 23.6107H69.0514C69.0514 21.4873 70.7549 19.7656 72.8509 19.7656ZM75.1305 23.6108C75.1305 22.3379 74.1088 21.3037 72.8509 21.3037C71.5938 21.3037 70.5712 22.3372 70.5712 23.6089L75.1305 23.6108ZM69.0514 25.1486H68.2931C68.254 25.1486 68.1961 25.2037 68.1938 25.24L67.6352 34.3767L78.072 34.3747L77.5079 25.24C77.5057 25.205 77.4463 25.1486 77.4086 25.1486H76.6503V26.6867C76.6503 27.1114 76.3101 27.4557 75.8904 27.4557C75.4708 27.4557 75.1305 27.1114 75.1305 26.6867V25.1486H70.5712V26.6867C70.5712 27.1114 70.231 27.4557 69.8113 27.4557C69.3916 27.4557 69.0514 27.1114 69.0514 26.6867V25.1486Z" fill="white"/>
</g>
</g>
</svg>
