<svg width="103" height="27" viewBox="0 0 103 27" fill="none" xmlns="http://www.w3.org/2000/svg">
<path d="M14.9292 0.689697C15.0796 2.04673 14.5379 3.38397 13.7462 4.3669C12.9201 5.33454 11.5985 6.07465 10.3113 5.97933C10.1428 4.67356 10.795 3.28505 11.5251 2.43792C12.3503 1.47658 13.7834 0.740058 14.9292 0.689697Z" fill="white"/>
<path d="M19.1431 8.51793C18.9994 8.60305 16.6188 10.0136 16.6449 12.8904C16.6757 16.3643 19.7066 17.5127 19.7429 17.5244C19.7248 17.6054 19.2682 19.1836 18.1314 20.7826C17.1821 22.1927 16.1875 23.5713 14.6077 23.5946C13.8564 23.6123 13.3491 23.3979 12.8205 23.1745C12.2694 22.9417 11.6951 22.699 10.7968 22.699C9.84448 22.699 9.24467 22.9497 8.6663 23.1914C8.16585 23.4006 7.68145 23.6031 6.99861 23.6306C5.49401 23.6855 4.34449 22.127 3.36075 20.7295C1.39417 17.8779 -0.136702 12.6934 1.91593 9.16552C2.91055 7.43528 4.72404 6.32106 6.66254 6.29138C7.51617 6.27406 8.33489 6.60065 9.05261 6.88696C9.60147 7.1059 10.0913 7.30129 10.4924 7.30129C10.8448 7.30129 11.3208 7.11372 11.8757 6.8951C12.7501 6.55057 13.8201 6.12893 14.9102 6.24282C15.6557 6.2644 17.7772 6.53509 19.1459 8.51623L19.1431 8.51793Z" fill="white"/>
<path fill-rule="evenodd" clip-rule="evenodd" d="M30.0404 1.46421H27.9139V7.74519H30.0404C31.9213 7.74519 33.0262 6.58301 33.0262 4.60252C33.0262 2.62639 31.9169 1.46421 30.0404 1.46421ZM28.7031 2.16935V7.04005H29.9877C31.4215 7.04005 32.2194 6.1695 32.2194 4.61123C32.2194 3.0399 31.4258 2.16935 29.9877 2.16935H28.7031Z" fill="white"/>
<path fill-rule="evenodd" clip-rule="evenodd" d="M36.0745 7.82353C34.8118 7.82353 33.9612 6.92252 33.9612 5.48177C33.9612 4.03667 34.8118 3.14001 36.0745 3.14001C37.3328 3.14001 38.1834 4.03667 38.1834 5.48177C38.1834 6.92252 37.3328 7.82353 36.0745 7.82353ZM37.4074 5.48177C37.4074 6.54819 36.8812 7.15757 36.0745 7.15757C35.2678 7.15757 34.7372 6.54819 34.7372 5.48177C34.7372 4.41535 35.2678 3.80597 36.0745 3.80597C36.8812 3.80597 37.4074 4.41535 37.4074 5.48177Z" fill="white"/>
<path d="M43.003 7.74519H43.7791L45.0506 3.21836H44.2964L43.3845 6.90076H43.367L42.3322 3.21836H41.5956L40.5653 6.90076H40.5478L39.6358 3.21836H38.8773L40.1532 7.74519H40.9292L41.9552 4.24125H41.9727L43.003 7.74519Z" fill="white"/>
<path d="M46.6915 3.21836H45.9725V7.74519H46.7354V5.08132C46.7354 4.31524 47.2045 3.81033 47.9235 3.81033C48.625 3.81033 48.9714 4.21078 48.9714 4.94203V7.74519H49.7343V4.8071C49.7343 3.77986 49.1556 3.14001 48.1559 3.14001C47.45 3.14001 46.9633 3.4534 46.7091 3.94091H46.6915V3.21836Z" fill="white"/>
<path d="M51.042 1.46421V7.74519H51.8049V1.46421H51.042Z" fill="white"/>
<path fill-rule="evenodd" clip-rule="evenodd" d="M52.911 5.48177C52.911 6.92252 53.7615 7.82353 55.0243 7.82353C56.2826 7.82353 57.1332 6.92252 57.1332 5.48177C57.1332 4.03667 56.2826 3.14001 55.0243 3.14001C53.7615 3.14001 52.911 4.03667 52.911 5.48177ZM55.0242 7.15757C55.831 7.15757 56.3571 6.54819 56.3571 5.48177C56.3571 4.41535 55.831 3.80597 55.0242 3.80597C54.2175 3.80597 53.687 4.41535 53.687 5.48177C53.687 6.54819 54.2175 7.15757 55.0242 7.15757Z" fill="white"/>
<path fill-rule="evenodd" clip-rule="evenodd" d="M59.5326 7.82353C58.625 7.82353 58.0156 7.27944 58.0156 6.46549C58.0156 5.6907 58.6163 5.2032 59.6685 5.14226L60.9751 5.06826V4.68958C60.9751 4.13678 60.6068 3.80597 59.9754 3.80597C59.3879 3.80597 59.0196 4.0802 58.9232 4.52417H58.1866C58.2392 3.74068 58.9144 3.14001 59.993 3.14001C61.0628 3.14001 61.738 3.71457 61.738 4.61558V7.74519H61.0145V6.96605H60.997C60.7252 7.48402 60.1464 7.82353 59.5326 7.82353ZM60.9751 6.02586C60.9751 6.67877 60.4226 7.17933 59.7036 7.17933C59.1555 7.17933 58.7916 6.89641 58.7916 6.46549C58.7916 6.03892 59.1424 5.76905 59.7562 5.72988L60.9751 5.65588V6.02586Z" fill="white"/>
<path fill-rule="evenodd" clip-rule="evenodd" d="M62.7826 5.48177C62.7826 6.90076 63.5718 7.82353 64.7337 7.82353C65.3914 7.82353 65.9131 7.50143 66.2069 6.97911H66.22V7.74519H66.9478V1.46421H66.1849V3.95397H66.1674C65.8956 3.45776 65.3694 3.14001 64.7162 3.14001C63.5674 3.14001 62.7826 4.06278 62.7826 5.48177ZM64.8784 3.80597C64.0717 3.80597 63.5631 4.45888 63.5631 5.48177C63.5631 6.50901 64.0717 7.15757 64.8784 7.15757C65.6632 7.15757 66.1893 6.49595 66.1893 5.48177C66.1893 4.47194 65.6632 3.80597 64.8784 3.80597Z" fill="white"/>
<path fill-rule="evenodd" clip-rule="evenodd" d="M72.3079 7.82353C71.0452 7.82353 70.1946 6.92252 70.1946 5.48177C70.1946 4.03667 71.0452 3.14001 72.3079 3.14001C73.5663 3.14001 74.4168 4.03667 74.4168 5.48177C74.4168 6.92252 73.5663 7.82353 72.3079 7.82353ZM73.6408 5.48177C73.6408 6.54819 73.1147 7.15757 72.3079 7.15757C71.5012 7.15757 70.9707 6.54819 70.9707 5.48177C70.9707 4.41535 71.5012 3.80597 72.3079 3.80597C73.1147 3.80597 73.6408 4.41535 73.6408 5.48177Z" fill="white"/>
<path d="M76.2025 3.21836H75.4834V7.74519H76.2463V5.08132C76.2463 4.31524 76.7154 3.81033 77.4345 3.81033C78.136 3.81033 78.4824 4.21078 78.4824 4.94203V7.74519H79.2453V4.8071C79.2453 3.77986 78.6665 3.14001 77.6669 3.14001C76.961 3.14001 76.4743 3.4534 76.22 3.94091H76.2025V3.21836Z" fill="white"/>
<path d="M83.6627 2.12582H82.8998V3.21836H82.2202V3.8408H82.8998V6.56995C82.8998 7.4405 83.2243 7.78001 84.0617 7.78001C84.2414 7.78001 84.4519 7.76695 84.544 7.74519V7.10969C84.4914 7.11839 84.316 7.13145 84.2283 7.13145C83.8381 7.13145 83.6627 6.94428 83.6627 6.53078V3.8408H84.5484V3.21836H83.6627V2.12582Z" fill="white"/>
<path d="M85.6982 1.46421V7.74519H86.4611V5.10744C86.4611 4.32395 86.9303 3.81033 87.6888 3.81033C88.4034 3.81033 88.7673 4.24125 88.7673 4.95944V7.74519H89.5302V4.82016C89.5302 3.81033 88.9252 3.14001 87.9255 3.14001C87.2328 3.14001 86.733 3.43599 86.4787 3.94091H86.4611V1.46421H85.6982Z" fill="white"/>
<path fill-rule="evenodd" clip-rule="evenodd" d="M94.5735 6.44808H93.8237C93.6966 6.87464 93.2713 7.16627 92.6926 7.16627C91.8727 7.16627 91.3597 6.59607 91.3597 5.72988V5.68635H94.6305V5.39907C94.6305 4.02796 93.872 3.14001 92.64 3.14001C91.3816 3.14001 90.5749 4.09325 90.5749 5.49918C90.5749 6.92252 91.3685 7.82353 92.675 7.82353C93.6703 7.82353 94.442 7.24027 94.5735 6.44808ZM92.6268 3.79727C91.9121 3.79727 91.4123 4.34136 91.3641 5.09438H93.8413C93.8237 4.33701 93.3458 3.79727 92.6268 3.79727Z" fill="white"/>
<path fill-rule="evenodd" clip-rule="evenodd" d="M35.3018 23.1427L34.197 19.9019H29.5933L28.4884 23.1427H26.5382L30.8991 11.1518H32.9247L37.2856 23.1427H35.3018ZM30.0704 18.4062L31.87 13.1461H31.9202L33.7198 18.4062H30.0704Z" fill="white"/>
<path fill-rule="evenodd" clip-rule="evenodd" d="M47.1019 18.7718C47.1019 16.0047 45.6287 14.2596 43.3939 14.2596C42.1216 14.2596 41.1088 14.8995 40.5898 15.905H40.5564V14.4009H38.807V26.0345H40.6149V21.7051H40.6568C41.159 22.6774 42.1634 23.2923 43.4274 23.2923C45.6371 23.2923 47.1019 21.539 47.1019 18.7718ZM42.9168 21.7716C44.3481 21.7716 45.2437 20.6083 45.2437 18.7718C45.2437 16.9437 44.3481 15.772 42.9168 15.772C41.5357 15.772 40.6066 16.9686 40.6066 18.7718C40.6066 20.5916 41.5273 21.7716 42.9168 21.7716Z" fill="white"/>
<path fill-rule="evenodd" clip-rule="evenodd" d="M53.4864 14.2596C55.7213 14.2596 57.1944 16.0047 57.1944 18.7718C57.1944 21.539 55.7296 23.2923 53.5199 23.2923C52.256 23.2923 51.2515 22.6774 50.7493 21.7051H50.7075V26.0345H48.8995V14.4009H50.6489V15.905H50.6824C51.2013 14.8995 52.2141 14.2596 53.4864 14.2596ZM55.3362 18.7718C55.3362 20.6083 54.4406 21.7716 53.0093 21.7716C51.6198 21.7716 50.6991 20.5916 50.6991 18.7718C50.6991 16.9686 51.6282 15.772 53.0093 15.772C54.4406 15.772 55.3362 16.9437 55.3362 18.7718Z" fill="white"/>
<path d="M64.4056 19.8022H62.5558C62.673 21.9711 64.4809 23.3422 67.1594 23.3422C70.0221 23.3422 71.8217 21.9378 71.8217 19.6942C71.8217 17.9408 70.7921 16.952 68.3145 16.3703L66.9837 16.0462C65.4268 15.664 64.7906 15.1654 64.7906 14.3178C64.7906 13.2541 65.7867 12.5229 67.2431 12.5229C68.6996 12.5229 69.6956 13.2458 69.8044 14.4424H71.6291C71.5706 12.3733 69.8212 10.9523 67.2682 10.9523C64.6902 10.9523 62.8739 12.3733 62.8739 14.4424C62.8739 16.1127 63.9034 17.1431 66.1215 17.6749L67.6868 18.0489C69.252 18.4311 69.9132 18.9879 69.9132 19.9186C69.9132 20.9905 68.8167 21.7716 67.2933 21.7716C65.703 21.7716 64.5395 20.9905 64.4056 19.8022Z" fill="white"/>
<path d="M76.0383 12.3318H74.2219V14.4009H72.9413V15.8219H74.2219V20.8409C74.2219 22.5278 74.9167 23.2009 76.6995 23.2009C77.1013 23.2009 77.5031 23.1677 77.704 23.1178V21.6968C77.5868 21.7218 77.2938 21.7384 77.1097 21.7384C76.3731 21.7384 76.0383 21.3977 76.0383 20.6415V15.8219H77.7123V14.4009H76.0383V12.3318Z" fill="white"/>
<path fill-rule="evenodd" clip-rule="evenodd" d="M78.9994 18.7718C78.9994 21.5888 80.6567 23.3089 83.1761 23.3089C85.6956 23.3089 87.3529 21.5888 87.3529 18.7718C87.3529 15.9631 85.6872 14.243 83.1761 14.243C80.665 14.243 78.9994 15.9631 78.9994 18.7718ZM83.1761 21.8298C84.5991 21.8298 85.5114 20.7163 85.5114 18.7718C85.5114 16.8356 84.5907 15.7221 83.1761 15.7221C81.7615 15.7221 80.8408 16.8356 80.8408 18.7718C80.8408 20.7163 81.7615 21.8298 83.1761 21.8298Z" fill="white"/>
<path d="M89.1589 14.4009H90.8831V15.8883H90.925C91.2179 14.8662 92.0047 14.2596 93.0427 14.2596C93.3021 14.2596 93.5281 14.3012 93.6621 14.3261V15.9964C93.5198 15.9382 93.2017 15.8966 92.8501 15.8966C91.6867 15.8966 90.9668 16.6694 90.9668 17.9076V23.1427H89.1589V14.4009Z" fill="white"/>
<path fill-rule="evenodd" clip-rule="evenodd" d="M101.026 20.5812H102.742C102.491 22.1767 100.967 23.3151 98.9501 23.3151C96.3637 23.3151 94.7984 21.5784 94.7984 18.8196C94.7984 16.0774 96.3888 14.2492 98.8747 14.2492C101.319 14.2492 102.842 15.961 102.842 18.6118V19.2267H96.6231V19.3348C96.6231 20.8555 97.5439 21.8609 98.9919 21.8609C100.021 21.8609 100.783 21.3457 101.026 20.5812ZM96.6231 18.0752L101.026 18.0339C101.026 17.6656 100.871 16.9828 100.506 16.6207C100.141 16.2587 99.6041 15.9838 98.8747 15.9838C97.4059 15.9838 96.6231 16.958 96.6231 18.0752Z" fill="white"/>
</svg>
