<svg width="103" height="27" viewBox="0 0 103 27" fill="none" xmlns="http://www.w3.org/2000/svg">
<path d="M14.9295 0.689636C15.0799 2.04667 14.5382 3.38391 13.7465 4.36684C12.9203 5.33448 11.5987 6.07459 10.3115 5.97927C10.143 4.6735 10.7952 3.28499 11.5253 2.43786C12.3506 1.47652 13.7836 0.739997 14.9295 0.689636Z" fill="white"/>
<path d="M19.1433 8.51787C18.9997 8.60299 16.6191 10.0136 16.6452 12.8903C16.6759 16.3643 19.7069 17.5127 19.7431 17.5244C19.725 17.6053 19.2685 19.1836 18.1316 20.7825C17.1823 22.1926 16.1877 23.5712 14.6079 23.5946C13.8566 23.6122 13.3494 23.3979 12.8208 23.1745C12.2697 22.9416 11.6954 22.6989 10.797 22.6989C9.84472 22.6989 9.24492 22.9496 8.66655 23.1914C8.16609 23.4005 7.68169 23.603 6.99885 23.6306C5.49425 23.6854 4.34474 22.1269 3.36099 20.7294C1.39441 17.8778 -0.136458 12.6934 1.91618 9.16546C2.91079 7.43522 4.72428 6.321 6.66278 6.29132C7.51641 6.274 8.33513 6.60059 9.05286 6.8869C9.60172 7.10584 10.0915 7.30123 10.4927 7.30123C10.845 7.30123 11.3211 7.11366 11.8759 6.89504C12.7503 6.55051 13.8204 6.12887 14.9105 6.24276C15.656 6.26434 17.7775 6.53503 19.1462 8.51617L19.1433 8.51787Z" fill="white"/>
<path fill-rule="evenodd" clip-rule="evenodd" d="M30.0406 1.46415H27.9142V7.74512H30.0406C31.9215 7.74512 33.0264 6.58295 33.0264 4.60246C33.0264 2.62633 31.9171 1.46415 30.0406 1.46415ZM28.7034 2.16929V7.03998H29.988C31.4217 7.03998 32.2197 6.16944 32.2197 4.61117C32.2197 3.03983 31.4261 2.16929 29.988 2.16929H28.7034Z" fill="white"/>
<path fill-rule="evenodd" clip-rule="evenodd" d="M36.0747 7.82347C34.812 7.82347 33.9614 6.92246 33.9614 5.48171C33.9614 4.03661 34.812 3.13995 36.0747 3.13995C37.3331 3.13995 38.1836 4.03661 38.1836 5.48171C38.1836 6.92246 37.3331 7.82347 36.0747 7.82347ZM37.4076 5.48171C37.4076 6.54813 36.8815 7.15751 36.0747 7.15751C35.268 7.15751 34.7375 6.54813 34.7375 5.48171C34.7375 4.41529 35.268 3.80591 36.0747 3.80591C36.8815 3.80591 37.4076 4.41529 37.4076 5.48171Z" fill="white"/>
<path d="M43.0033 7.74512H43.7793L45.0508 3.2183H44.2967L43.3847 6.9007H43.3672L42.3325 3.2183H41.5959L40.5656 6.9007H40.548L39.6361 3.2183H38.8775L40.1534 7.74512H40.9295L41.9554 4.24118H41.973L43.0033 7.74512Z" fill="white"/>
<path d="M46.6918 3.2183H45.9727V7.74512H46.7356V5.08126C46.7356 4.31518 47.2047 3.81027 47.9238 3.81027C48.6253 3.81027 48.9717 4.21072 48.9717 4.94197V7.74512H49.7345V4.80704C49.7345 3.7798 49.1558 3.13995 48.1562 3.13995C47.4503 3.13995 46.9636 3.45334 46.7093 3.94085H46.6918V3.2183Z" fill="white"/>
<path d="M51.0423 1.46415V7.74512H51.8052V1.46415H51.0423Z" fill="white"/>
<path fill-rule="evenodd" clip-rule="evenodd" d="M52.9112 5.48171C52.9112 6.92246 53.7618 7.82347 55.0245 7.82347C56.2828 7.82347 57.1334 6.92246 57.1334 5.48171C57.1334 4.03661 56.2828 3.13995 55.0245 3.13995C53.7618 3.13995 52.9112 4.03661 52.9112 5.48171ZM55.0245 7.15751C55.8312 7.15751 56.3574 6.54813 56.3574 5.48171C56.3574 4.41529 55.8312 3.80591 55.0245 3.80591C54.2178 3.80591 53.6872 4.41529 53.6872 5.48171C53.6872 6.54813 54.2178 7.15751 55.0245 7.15751Z" fill="white"/>
<path fill-rule="evenodd" clip-rule="evenodd" d="M59.5329 7.82347C58.6253 7.82347 58.0158 7.27938 58.0158 6.46542C58.0158 5.69064 58.6165 5.20314 59.6688 5.1422L60.9753 5.0682V4.68952C60.9753 4.13672 60.607 3.80591 59.9757 3.80591C59.3882 3.80591 59.0199 4.08013 58.9234 4.52411H58.1868C58.2394 3.74062 58.9146 3.13995 59.9932 3.13995C61.063 3.13995 61.7382 3.71451 61.7382 4.61552V7.74512H61.0148V6.96599H60.9972C60.7254 7.48396 60.1467 7.82347 59.5329 7.82347ZM60.9753 6.0258C60.9753 6.67871 60.4229 7.17927 59.7038 7.17927C59.1558 7.17927 58.7919 6.89634 58.7919 6.46542C58.7919 6.03886 59.1426 5.76899 59.7565 5.72982L60.9753 5.65582V6.0258Z" fill="white"/>
<path fill-rule="evenodd" clip-rule="evenodd" d="M62.7829 5.48171C62.7829 6.9007 63.5721 7.82347 64.7339 7.82347C65.3916 7.82347 65.9133 7.50137 66.2071 6.97905H66.2203V7.74512H66.9481V1.46415H66.1852V3.95391H66.1676C65.8958 3.4577 65.3697 3.13995 64.7164 3.13995C63.5677 3.13995 62.7829 4.06272 62.7829 5.48171ZM64.8786 3.80591C64.0719 3.80591 63.5633 4.45882 63.5633 5.48171C63.5633 6.50895 64.0719 7.15751 64.8786 7.15751C65.6634 7.15751 66.1896 6.49589 66.1896 5.48171C66.1896 4.47188 65.6634 3.80591 64.8786 3.80591Z" fill="white"/>
<path fill-rule="evenodd" clip-rule="evenodd" d="M72.3082 7.82347C71.0455 7.82347 70.1949 6.92246 70.1949 5.48171C70.1949 4.03661 71.0455 3.13995 72.3082 3.13995C73.5665 3.13995 74.4171 4.03661 74.4171 5.48171C74.4171 6.92246 73.5665 7.82347 72.3082 7.82347ZM73.641 5.48171C73.641 6.54813 73.1149 7.15751 72.3082 7.15751C71.5014 7.15751 70.9709 6.54813 70.9709 5.48171C70.9709 4.41529 71.5014 3.80591 72.3082 3.80591C73.1149 3.80591 73.641 4.41529 73.641 5.48171Z" fill="white"/>
<path d="M76.2027 3.2183H75.4837V7.74512H76.2466V5.08126C76.2466 4.31518 76.7157 3.81027 77.4347 3.81027C78.1362 3.81027 78.4826 4.21072 78.4826 4.94197V7.74512H79.2455V4.80704C79.2455 3.7798 78.6668 3.13995 77.6671 3.13995C76.9612 3.13995 76.4745 3.45334 76.2203 3.94085H76.2027V3.2183Z" fill="white"/>
<path d="M83.6629 2.12576H82.9001V3.2183H82.2205V3.84073H82.9001V6.56989C82.9001 7.44043 83.2245 7.77995 84.0619 7.77995C84.2417 7.77995 84.4521 7.76689 84.5442 7.74512V7.10963C84.4916 7.11833 84.3162 7.13139 84.2285 7.13139C83.8383 7.13139 83.6629 6.94422 83.6629 6.53072V3.84073H84.5486V3.2183H83.6629V2.12576Z" fill="white"/>
<path d="M85.6985 1.46415V7.74512H86.4614V5.10738C86.4614 4.32389 86.9305 3.81027 87.689 3.81027C88.4037 3.81027 88.7676 4.24119 88.7676 4.95938V7.74512H89.5305V4.8201C89.5305 3.81027 88.9254 3.13995 87.9258 3.13995C87.233 3.13995 86.7332 3.43593 86.4789 3.94085H86.4614V1.46415H85.6985Z" fill="white"/>
<path fill-rule="evenodd" clip-rule="evenodd" d="M94.5737 6.44801H93.824C93.6968 6.87458 93.2716 7.16621 92.6928 7.16621C91.8729 7.16621 91.3599 6.59601 91.3599 5.72982V5.68629H94.6307V5.39901C94.6307 4.0279 93.8722 3.13995 92.6402 3.13995C91.3819 3.13995 90.5751 4.09319 90.5751 5.49912C90.5751 6.92246 91.3687 7.82347 92.6753 7.82347C93.6705 7.82347 94.4422 7.24021 94.5737 6.44801ZM92.627 3.79721C91.9124 3.79721 91.4126 4.3413 91.3643 5.09432H93.8415C93.824 4.33694 93.3461 3.79721 92.627 3.79721Z" fill="white"/>
<path fill-rule="evenodd" clip-rule="evenodd" d="M35.3021 23.1427L34.1972 19.9019H29.5936L28.4887 23.1427H26.5384L30.8993 11.1517H32.9249L37.2858 23.1427H35.3021ZM30.0707 18.4061L31.8703 13.1461H31.9205L33.7201 18.4061H30.0707Z" fill="white"/>
<path fill-rule="evenodd" clip-rule="evenodd" d="M47.1021 18.7718C47.1021 16.0046 45.629 14.2596 43.3941 14.2596C42.1218 14.2596 41.109 14.8994 40.5901 15.9049H40.5566V14.4008H38.8072V26.0345H40.6152V21.7051H40.657C41.1593 22.6773 42.1637 23.2922 43.4276 23.2922C45.6373 23.2922 47.1021 21.5389 47.1021 18.7718ZM42.917 21.7716C44.3483 21.7716 45.2439 20.6082 45.2439 18.7718C45.2439 16.9436 44.3483 15.7719 42.917 15.7719C41.5359 15.7719 40.6068 16.9685 40.6068 18.7718C40.6068 20.5916 41.5275 21.7716 42.917 21.7716Z" fill="white"/>
<path fill-rule="evenodd" clip-rule="evenodd" d="M53.4867 14.2596C55.7215 14.2596 57.1947 16.0046 57.1947 18.7718C57.1947 21.5389 55.7299 23.2922 53.5201 23.2922C52.2562 23.2922 51.2518 22.6773 50.7496 21.7051H50.7077V26.0345H48.8998V14.4008H50.6491V15.9049H50.6826C51.2016 14.8994 52.2144 14.2596 53.4867 14.2596ZM55.3365 18.7718C55.3365 20.6082 54.4409 21.7716 53.0095 21.7716C51.6201 21.7716 50.6994 20.5916 50.6994 18.7718C50.6994 16.9685 51.6285 15.7719 53.0095 15.7719C54.4409 15.7719 55.3365 16.9436 55.3365 18.7718Z" fill="white"/>
<path d="M64.4059 19.8022H62.556C62.6732 21.971 64.4812 23.3421 67.1597 23.3421C70.0223 23.3421 71.8219 21.9378 71.8219 19.6941C71.8219 17.9408 70.7924 16.9519 68.3148 16.3702L66.9839 16.0462C65.427 15.6639 64.7909 15.1653 64.7909 14.3177C64.7909 13.2541 65.7869 12.5228 67.2434 12.5228C68.6998 12.5228 69.6959 13.2458 69.8047 14.4424H71.6294C71.5708 12.3733 69.8214 10.9523 67.2685 10.9523C64.6904 10.9523 62.8741 12.3733 62.8741 14.4424C62.8741 16.1126 63.9036 17.143 66.1218 17.6749L67.687 18.0488C69.2522 18.4311 69.9135 18.9878 69.9135 19.9185C69.9135 20.9905 68.817 21.7716 67.2936 21.7716C65.7032 21.7716 64.5398 20.9905 64.4059 19.8022Z" fill="white"/>
<path d="M76.0385 12.3317H74.2222V14.4008H72.9415V15.8218H74.2222V20.8409C74.2222 22.5278 74.9169 23.2008 76.6998 23.2008C77.1015 23.2008 77.5033 23.1676 77.7042 23.1177V21.6968C77.587 21.7217 77.2941 21.7383 77.1099 21.7383C76.3733 21.7383 76.0385 21.3976 76.0385 20.6414V15.8218H77.7126V14.4008H76.0385V12.3317Z" fill="white"/>
<path fill-rule="evenodd" clip-rule="evenodd" d="M78.9996 18.7718C78.9996 21.5888 80.6569 23.3089 83.1764 23.3089C85.6958 23.3089 87.3531 21.5888 87.3531 18.7718C87.3531 15.9631 85.6874 14.2429 83.1764 14.2429C80.6653 14.2429 78.9996 15.9631 78.9996 18.7718ZM83.1764 21.8297C84.5993 21.8297 85.5117 20.7162 85.5117 18.7718C85.5117 16.8356 84.5909 15.7221 83.1764 15.7221C81.7618 15.7221 80.8411 16.8356 80.8411 18.7718C80.8411 20.7162 81.7618 21.8297 83.1764 21.8297Z" fill="white"/>
<path d="M89.1591 14.4008H90.8834V15.8883H90.9252C91.2182 14.8662 92.005 14.2596 93.0429 14.2596C93.3024 14.2596 93.5284 14.3011 93.6623 14.326V15.9963C93.52 15.9381 93.2019 15.8966 92.8504 15.8966C91.6869 15.8966 90.9671 16.6694 90.9671 17.9075V23.1427H89.1591V14.4008Z" fill="white"/>
<path fill-rule="evenodd" clip-rule="evenodd" d="M101.026 20.5812H102.742C102.491 22.1766 100.968 23.3151 98.9503 23.3151C96.3639 23.3151 94.7987 21.5783 94.7987 18.8195C94.7987 16.0773 96.389 14.2492 98.875 14.2492C101.319 14.2492 102.842 15.961 102.842 18.6118V19.2267H96.6234V19.3347C96.6234 20.8554 97.5441 21.8609 98.9922 21.8609C100.022 21.8609 100.783 21.3457 101.026 20.5812ZM96.6234 18.0752L101.026 18.0338C101.026 17.6655 100.871 16.9827 100.506 16.6207C100.141 16.2586 99.6044 15.9837 98.875 15.9837C97.4062 15.9837 96.6234 16.9579 96.6234 18.0752Z" fill="white"/>
</svg>
