<svg width="103" height="27" viewBox="0 0 103 27" fill="none" xmlns="http://www.w3.org/2000/svg">
<path d="M14.9292 0.689655C15.0796 2.04669 14.5379 3.38393 13.7462 4.36686C12.9201 5.3345 11.5985 6.07461 10.3113 5.97929C10.1428 4.67352 10.795 3.28501 11.5251 2.43788C12.3503 1.47654 13.7834 0.740016 14.9292 0.689655Z" fill="white"/>
<path d="M19.1431 8.51789C18.9994 8.60301 16.6188 10.0136 16.6449 12.8903C16.6757 16.3643 19.7066 17.5127 19.7429 17.5244C19.7248 17.6053 19.2682 19.1836 18.1314 20.7825C17.1821 22.1926 16.1875 23.5712 14.6077 23.5946C13.8564 23.6122 13.3491 23.3979 12.8205 23.1745C12.2694 22.9416 11.6951 22.6989 10.7968 22.6989C9.84448 22.6989 9.24467 22.9496 8.6663 23.1914C8.16585 23.4006 7.68145 23.603 6.99861 23.6306C5.49401 23.6854 4.34449 22.127 3.36075 20.7295C1.39417 17.8778 -0.136702 12.6934 1.91593 9.16548C2.91055 7.43524 4.72404 6.32102 6.66254 6.29134C7.51617 6.27402 8.33489 6.60061 9.05261 6.88692C9.60147 7.10586 10.0913 7.30125 10.4924 7.30125C10.8448 7.30125 11.3208 7.11367 11.8757 6.89506C12.7501 6.55053 13.8201 6.12889 14.9102 6.24278C15.6557 6.26436 17.7772 6.53505 19.1459 8.51619L19.1431 8.51789Z" fill="white"/>
<path fill-rule="evenodd" clip-rule="evenodd" d="M30.0404 1.46417H27.9139V7.74514H30.0404C31.9213 7.74514 33.0262 6.58297 33.0262 4.60248C33.0262 2.62634 31.9169 1.46417 30.0404 1.46417ZM28.7031 2.16931V7.04H29.9877C31.4215 7.04 32.2194 6.16946 32.2194 4.61119C32.2194 3.03985 31.4258 2.16931 29.9877 2.16931H28.7031Z" fill="white"/>
<path fill-rule="evenodd" clip-rule="evenodd" d="M36.0745 7.82349C34.8118 7.82349 33.9612 6.92248 33.9612 5.48173C33.9612 4.03663 34.8118 3.13997 36.0745 3.13997C37.3328 3.13997 38.1834 4.03663 38.1834 5.48173C38.1834 6.92248 37.3328 7.82349 36.0745 7.82349ZM37.4074 5.48173C37.4074 6.54815 36.8812 7.15753 36.0745 7.15753C35.2678 7.15753 34.7372 6.54815 34.7372 5.48173C34.7372 4.41531 35.2678 3.80593 36.0745 3.80593C36.8812 3.80593 37.4074 4.41531 37.4074 5.48173Z" fill="white"/>
<path d="M43.003 7.74514H43.7791L45.0506 3.21831H44.2964L43.3845 6.90072H43.367L42.3322 3.21831H41.5956L40.5653 6.90072H40.5478L39.6358 3.21831H38.8773L40.1532 7.74514H40.9292L41.9552 4.2412H41.9727L43.003 7.74514Z" fill="white"/>
<path d="M46.6915 3.21831H45.9725V7.74514H46.7354V5.08128C46.7354 4.3152 47.2045 3.81028 47.9235 3.81028C48.625 3.81028 48.9714 4.21073 48.9714 4.94199V7.74514H49.7343V4.80706C49.7343 3.77982 49.1556 3.13997 48.1559 3.13997C47.45 3.13997 46.9633 3.45336 46.7091 3.94087H46.6915V3.21831Z" fill="white"/>
<path d="M51.042 1.46417V7.74514H51.8049V1.46417H51.042Z" fill="white"/>
<path fill-rule="evenodd" clip-rule="evenodd" d="M52.911 5.48173C52.911 6.92248 53.7615 7.82349 55.0243 7.82349C56.2826 7.82349 57.1332 6.92248 57.1332 5.48173C57.1332 4.03663 56.2826 3.13997 55.0243 3.13997C53.7615 3.13997 52.911 4.03663 52.911 5.48173ZM55.0242 7.15753C55.831 7.15753 56.3571 6.54815 56.3571 5.48173C56.3571 4.41531 55.831 3.80593 55.0242 3.80593C54.2175 3.80593 53.687 4.41531 53.687 5.48173C53.687 6.54815 54.2175 7.15753 55.0242 7.15753Z" fill="white"/>
<path fill-rule="evenodd" clip-rule="evenodd" d="M59.5326 7.82349C58.625 7.82349 58.0156 7.2794 58.0156 6.46544C58.0156 5.69066 58.6163 5.20316 59.6685 5.14222L60.9751 5.06822V4.68953C60.9751 4.13674 60.6068 3.80593 59.9754 3.80593C59.3879 3.80593 59.0196 4.08015 58.9232 4.52413H58.1866C58.2392 3.74064 58.9144 3.13997 59.993 3.13997C61.0628 3.13997 61.738 3.71453 61.738 4.61554V7.74514H61.0145V6.96601H60.997C60.7252 7.48398 60.1464 7.82349 59.5326 7.82349ZM60.9751 6.02582C60.9751 6.67873 60.4226 7.17929 59.7036 7.17929C59.1555 7.17929 58.7916 6.89636 58.7916 6.46544C58.7916 6.03888 59.1424 5.76901 59.7562 5.72983L60.9751 5.65584V6.02582Z" fill="white"/>
<path fill-rule="evenodd" clip-rule="evenodd" d="M62.7826 5.48173C62.7826 6.90072 63.5718 7.82349 64.7337 7.82349C65.3914 7.82349 65.9131 7.50139 66.2069 6.97906H66.22V7.74514H66.9478V1.46417H66.1849V3.95392H66.1674C65.8956 3.45771 65.3694 3.13997 64.7162 3.13997C63.5674 3.13997 62.7826 4.06274 62.7826 5.48173ZM64.8784 3.80593C64.0717 3.80593 63.5631 4.45884 63.5631 5.48173C63.5631 6.50897 64.0717 7.15753 64.8784 7.15753C65.6632 7.15753 66.1893 6.49591 66.1893 5.48173C66.1893 4.4719 65.6632 3.80593 64.8784 3.80593Z" fill="white"/>
<path fill-rule="evenodd" clip-rule="evenodd" d="M72.3079 7.82349C71.0452 7.82349 70.1946 6.92248 70.1946 5.48173C70.1946 4.03663 71.0452 3.13997 72.3079 3.13997C73.5663 3.13997 74.4168 4.03663 74.4168 5.48173C74.4168 6.92248 73.5663 7.82349 72.3079 7.82349ZM73.6408 5.48173C73.6408 6.54815 73.1147 7.15753 72.3079 7.15753C71.5012 7.15753 70.9707 6.54815 70.9707 5.48173C70.9707 4.41531 71.5012 3.80593 72.3079 3.80593C73.1147 3.80593 73.6408 4.41531 73.6408 5.48173Z" fill="white"/>
<path d="M76.2025 3.21831H75.4834V7.74514H76.2463V5.08128C76.2463 4.3152 76.7154 3.81028 77.4345 3.81028C78.136 3.81028 78.4824 4.21073 78.4824 4.94199V7.74514H79.2453V4.80706C79.2453 3.77982 78.6665 3.13997 77.6669 3.13997C76.961 3.13997 76.4743 3.45336 76.22 3.94087H76.2025V3.21831Z" fill="white"/>
<path d="M83.6627 2.12578H82.8998V3.21831H82.2202V3.84075H82.8998V6.56991C82.8998 7.44045 83.2243 7.77997 84.0617 7.77997C84.2414 7.77997 84.4519 7.76691 84.544 7.74514V7.10965C84.4914 7.11835 84.316 7.13141 84.2283 7.13141C83.8381 7.13141 83.6627 6.94424 83.6627 6.53073V3.84075H84.5484V3.21831H83.6627V2.12578Z" fill="white"/>
<path d="M85.6982 1.46417V7.74514H86.4611V5.1074C86.4611 4.32391 86.9303 3.81028 87.6888 3.81028C88.4034 3.81028 88.7673 4.2412 88.7673 4.9594V7.74514H89.5302V4.82012C89.5302 3.81028 88.9252 3.13997 87.9255 3.13997C87.2328 3.13997 86.733 3.43595 86.4787 3.94087H86.4611V1.46417H85.6982Z" fill="white"/>
<path fill-rule="evenodd" clip-rule="evenodd" d="M94.5735 6.44803H93.8237C93.6966 6.8746 93.2713 7.16623 92.6926 7.16623C91.8727 7.16623 91.3597 6.59603 91.3597 5.72983V5.68631H94.6305V5.39903C94.6305 4.02792 93.872 3.13997 92.64 3.13997C91.3816 3.13997 90.5749 4.09321 90.5749 5.49914C90.5749 6.92248 91.3685 7.82349 92.675 7.82349C93.6703 7.82349 94.442 7.24023 94.5735 6.44803ZM92.6268 3.79723C91.9121 3.79723 91.4123 4.34132 91.3641 5.09434H93.8413C93.8237 4.33696 93.3458 3.79723 92.6268 3.79723Z" fill="white"/>
<path fill-rule="evenodd" clip-rule="evenodd" d="M35.3018 23.1427L34.197 19.9019H29.5933L28.4884 23.1427H26.5382L30.8991 11.1517H32.9247L37.2856 23.1427H35.3018ZM30.0704 18.4061L31.87 13.1461H31.9202L33.7198 18.4061H30.0704Z" fill="white"/>
<path fill-rule="evenodd" clip-rule="evenodd" d="M47.1019 18.7718C47.1019 16.0046 45.6287 14.2596 43.3939 14.2596C42.1216 14.2596 41.1088 14.8994 40.5898 15.9049H40.5564V14.4008H38.807V26.0345H40.6149V21.7051H40.6568C41.159 22.6773 42.1634 23.2923 43.4274 23.2923C45.6371 23.2923 47.1019 21.5389 47.1019 18.7718ZM42.9168 21.7716C44.3481 21.7716 45.2437 20.6082 45.2437 18.7718C45.2437 16.9436 44.3481 15.772 42.9168 15.772C41.5357 15.772 40.6066 16.9686 40.6066 18.7718C40.6066 20.5916 41.5273 21.7716 42.9168 21.7716Z" fill="white"/>
<path fill-rule="evenodd" clip-rule="evenodd" d="M53.4864 14.2596C55.7213 14.2596 57.1944 16.0046 57.1944 18.7718C57.1944 21.5389 55.7296 23.2923 53.5199 23.2923C52.256 23.2923 51.2515 22.6773 50.7493 21.7051H50.7075V26.0345H48.8995V14.4008H50.6489V15.9049H50.6824C51.2013 14.8994 52.2141 14.2596 53.4864 14.2596ZM55.3362 18.7718C55.3362 20.6082 54.4406 21.7716 53.0093 21.7716C51.6198 21.7716 50.6991 20.5916 50.6991 18.7718C50.6991 16.9686 51.6282 15.772 53.0093 15.772C54.4406 15.772 55.3362 16.9436 55.3362 18.7718Z" fill="white"/>
<path d="M64.4056 19.8022H62.5558C62.673 21.971 64.4809 23.3421 67.1594 23.3421C70.0221 23.3421 71.8217 21.9378 71.8217 19.6942C71.8217 17.9408 70.7921 16.9519 68.3145 16.3703L66.9837 16.0462C65.4268 15.6639 64.7906 15.1653 64.7906 14.3178C64.7906 13.2541 65.7867 12.5228 67.2431 12.5228C68.6996 12.5228 69.6956 13.2458 69.8044 14.4424H71.6291C71.5706 12.3733 69.8212 10.9523 67.2682 10.9523C64.6902 10.9523 62.8739 12.3733 62.8739 14.4424C62.8739 16.1127 63.9034 17.1431 66.1215 17.6749L67.6868 18.0488C69.252 18.4311 69.9132 18.9878 69.9132 19.9185C69.9132 20.9905 68.8167 21.7716 67.2933 21.7716C65.703 21.7716 64.5395 20.9905 64.4056 19.8022Z" fill="white"/>
<path d="M76.0383 12.3317H74.2219V14.4008H72.9413V15.8218H74.2219V20.8409C74.2219 22.5278 74.9167 23.2009 76.6995 23.2009C77.1013 23.2009 77.5031 23.1676 77.704 23.1178V21.6968C77.5868 21.7217 77.2938 21.7383 77.1097 21.7383C76.3731 21.7383 76.0383 21.3976 76.0383 20.6415V15.8218H77.7123V14.4008H76.0383V12.3317Z" fill="white"/>
<path fill-rule="evenodd" clip-rule="evenodd" d="M78.9994 18.7718C78.9994 21.5888 80.6567 23.3089 83.1761 23.3089C85.6956 23.3089 87.3529 21.5888 87.3529 18.7718C87.3529 15.9631 85.6872 14.243 83.1761 14.243C80.665 14.243 78.9994 15.9631 78.9994 18.7718ZM83.1761 21.8298C84.5991 21.8298 85.5114 20.7162 85.5114 18.7718C85.5114 16.8356 84.5907 15.7221 83.1761 15.7221C81.7615 15.7221 80.8408 16.8356 80.8408 18.7718C80.8408 20.7162 81.7615 21.8298 83.1761 21.8298Z" fill="white"/>
<path d="M89.1589 14.4008H90.8831V15.8883H90.925C91.2179 14.8662 92.0047 14.2596 93.0427 14.2596C93.3021 14.2596 93.5281 14.3011 93.6621 14.3261V15.9963C93.5198 15.9381 93.2017 15.8966 92.8501 15.8966C91.6867 15.8966 90.9668 16.6694 90.9668 17.9076V23.1427H89.1589V14.4008Z" fill="white"/>
<path fill-rule="evenodd" clip-rule="evenodd" d="M101.026 20.5812H102.742C102.491 22.1767 100.967 23.3151 98.9501 23.3151C96.3637 23.3151 94.7984 21.5784 94.7984 18.8195C94.7984 16.0773 96.3888 14.2492 98.8747 14.2492C101.319 14.2492 102.842 15.961 102.842 18.6118V19.2267H96.6231V19.3347C96.6231 20.8554 97.5439 21.8609 98.9919 21.8609C100.021 21.8609 100.783 21.3457 101.026 20.5812ZM96.6231 18.0752L101.026 18.0338C101.026 17.6656 100.871 16.9828 100.506 16.6207C100.141 16.2586 99.6041 15.9837 98.8747 15.9837C97.4059 15.9837 96.6231 16.9579 96.6231 18.0752Z" fill="white"/>
</svg>
